<svg xmlns="http://www.w3.org/2000/svg" viewBox="0 0 1600 1000" width="1600" height="1000" preserveAspectRatio="xMidYMid slice"><defs><linearGradient id="bgart-digital" x1="0" y1="0" x2="0.6" y2="1"><stop offset="0" stop-color="#2A1A0E"/><stop offset="1" stop-color="#120C07"/></linearGradient><radialGradient id="glart-digital" cx="0.23" cy="0.70" r="0.75"><stop offset="0" stop-color="#B87333" stop-opacity="0.55"/><stop offset="0.5" stop-color="#B87333" stop-opacity="0.14"/><stop offset="1" stop-color="#B87333" stop-opacity="0"/></radialGradient><linearGradient id="vgart-digital" x1="0" y1="0" x2="0" y2="1"><stop offset="0" stop-color="#000" stop-opacity="0.42"/><stop offset="0.45" stop-color="#000" stop-opacity="0"/><stop offset="1" stop-color="#000" stop-opacity="0.62"/></linearGradient><pattern id="grart-digital" width="46" height="46" patternUnits="userSpaceOnUse"><path d="M46 0 L0 0 0 46" fill="none" stroke="#E9C39C" stroke-width="0.5" opacity="0.07"/></pattern><filter id="nzart-digital"><feTurbulence type="fractalNoise" baseFrequency="0.9" numOctaves="3" seed="88"/><feColorMatrix type="saturate" values="0"/></filter></defs><rect width="1600" height="1000" fill="url(#bgart-digital)"/><rect width="1600" height="1000" fill="url(#grart-digital)"/><rect width="1600" height="1000" fill="url(#glart-digital)"/><path d="M448.9 696.5 L449.9 700.1 L452.3 703.9 L456.2 708.3 L460.4 713.4 L462.8 718.7 L461.7 723.7 L456.7 727.6 L448.4 730.0 L438.5 731.2 L428.8 731.7 L420.0 731.9 L412.2 732.3 L405.0 732.5 L398.0 732.4 L391.2 731.7 L384.9 730.8 L379.1 730.5 L373.5 731.3 L367.5 733.3 L360.5 735.9 L352.6 738.1 L344.5 739.0 L337.1 738.1 L331.0 735.9 L325.7 733.0 L320.5 730.2 L314.6 728.0 L307.8 725.9 L300.8 723.7 L294.8 720.8 L290.8 717.1 L288.7 713.0 L288.0 708.8 L287.5 704.6 L287.0 700.6 L286.9 696.5 L288.5 692.6 L292.8 688.9 L299.8 686.0 L308.2 683.8 L316.0 682.2 L321.4 680.5 L324.0 678.0 L324.3 674.5 L324.0 670.1 L324.7 665.5 L327.1 661.2 L331.2 657.4 L336.5 654.2 L342.6 651.2 L349.3 648.2 L356.7 645.7 L365.0 644.4 L373.5 644.9 L381.6 647.2 L388.6 650.8 L394.5 654.7 L399.9 657.8 L405.6 659.8 L412.0 661.0 L418.6 662.2 L424.7 664.0 L429.2 666.9 L431.9 670.4 L433.5 674.1 L435.1 677.6 L437.6 680.6 L440.9 683.4 L444.4 686.4 L447.1 689.6 L448.4 693.0 L448.9 696.5 Z" fill="none" stroke="#E9C39C" stroke-width="0.80" opacity="0.300"/><path d="M517.6 696.5 L519.3 703.3 L517.4 710.1 L511.4 716.2 L502.4 721.5 L492.6 726.1 L484.3 730.6 L478.4 735.7 L473.9 741.4 L468.7 747.3 L461.0 752.1 L449.9 754.7 L436.6 754.8 L423.0 753.1 L410.6 750.9 L400.1 749.5 L391.1 749.6 L382.4 750.9 L373.5 752.6 L364.1 754.0 L354.1 755.2 L343.3 756.6 L331.0 758.9 L316.5 761.8 L300.0 764.5 L283.0 765.5 L268.1 763.5 L257.8 758.2 L253.2 750.4 L253.4 741.4 L256.0 732.7 L258.6 725.1 L259.8 718.6 L259.8 712.8 L259.9 707.2 L261.2 701.8 L263.8 696.5 L266.4 691.5 L267.4 686.5 L266.2 681.2 L263.9 675.2 L262.6 668.9 L264.5 663.0 L270.5 658.0 L279.5 654.4 L289.3 651.6 L297.8 648.4 L304.4 643.8 L309.7 637.6 L315.7 630.4 L323.8 623.7 L334.4 618.7 L347.0 616.3 L360.3 616.0 L373.5 617.2 L386.2 619.2 L398.2 621.9 L409.0 625.9 L417.8 631.7 L423.7 639.1 L426.9 647.3 L428.6 654.6 L431.3 659.8 L437.3 662.5 L447.6 663.4 L461.3 663.8 L475.8 665.0 L488.6 667.9 L498.3 672.3 L504.9 677.8 L509.8 683.7 L514.1 690.0 L517.6 696.5 Z" fill="none" stroke="#E9C39C" stroke-width="1.15" opacity="0.292"/><path d="M581.1 696.5 L570.6 705.7 L554.9 713.6 L538.0 720.0 L523.4 725.6 L511.8 730.9 L502.3 736.2 L492.9 741.1 L482.4 745.3 L471.4 748.8 L461.5 752.5 L453.8 757.6 L447.9 765.2 L442.0 774.9 L434.0 785.2 L422.4 793.8 L407.4 799.1 L390.6 800.7 L373.5 799.6 L356.9 797.6 L340.6 796.1 L323.9 795.3 L307.0 794.0 L290.9 791.0 L277.3 785.5 L267.0 777.7 L259.6 769.0 L253.4 760.6 L246.7 753.3 L239.0 746.8 L231.9 740.1 L227.6 732.8 L227.9 724.8 L232.0 716.8 L237.0 709.4 L239.1 702.8 L235.5 696.5 L226.3 689.7 L214.5 681.6 L204.2 672.3 L198.6 662.6 L198.6 653.0 L203.0 644.0 L209.8 635.4 L217.7 626.8 L227.1 618.4 L239.4 611.3 L255.5 606.6 L275.1 605.6 L296.0 607.8 L315.8 612.0 L333.0 615.8 L347.4 617.6 L360.5 617.1 L373.5 615.3 L387.1 614.0 L400.6 614.6 L413.4 617.2 L425.2 620.8 L437.0 624.0 L450.1 625.8 L465.2 626.7 L481.7 627.8 L497.7 630.3 L511.4 634.8 L522.1 641.0 L531.2 648.0 L540.9 654.9 L552.6 661.8 L565.8 669.1 L577.4 677.4 L583.4 686.7 L581.1 696.5 Z" fill="none" stroke="#E9C39C" stroke-width="1.50" opacity="0.285"/><path d="M614.6 696.5 L611.0 707.6 L602.2 718.0 L593.2 727.9 L586.9 737.9 L583.1 748.7 L579.1 759.8 L571.8 770.6 L559.8 779.9 L544.1 787.5 L526.8 793.9 L509.4 800.0 L492.1 806.1 L473.8 811.2 L453.4 813.6 L431.3 811.5 L409.3 804.7 L389.6 794.8 L373.5 785.1 L360.0 778.8 L346.6 777.8 L330.8 781.7 L311.1 788.0 L288.4 793.8 L264.4 797.3 L240.4 797.9 L217.0 796.0 L193.7 792.4 L170.9 787.2 L150.5 779.8 L136.1 769.6 L130.9 756.9 L135.8 742.7 L148.1 728.7 L162.5 716.4 L173.3 705.9 L177.2 696.5 L175.2 687.3 L171.4 677.5 L170.7 667.5 L175.9 658.2 L186.7 650.1 L200.3 643.2 L213.5 636.8 L224.8 630.0 L234.9 622.6 L245.6 615.2 L258.5 608.9 L273.4 604.1 L289.0 599.8 L303.8 594.4 L318.1 586.2 L333.3 575.0 L351.5 562.4 L373.5 551.8 L398.2 546.4 L422.6 548.1 L444.0 556.3 L460.7 568.7 L473.3 582.4 L483.1 595.3 L491.3 606.8 L498.1 617.3 L503.0 627.5 L505.9 637.3 L508.8 646.0 L514.9 653.0 L527.3 658.3 L546.8 662.9 L570.6 668.4 L593.3 675.9 L609.0 685.5 L614.6 696.5 Z" fill="none" stroke="#E9C39C" stroke-width="0.80" opacity="0.278"/><path d="M631.2 696.5 L635.4 708.7 L641.5 721.7 L645.0 735.3 L642.3 748.7 L633.2 761.1 L620.2 772.5 L606.2 783.4 L592.2 794.4 L577.0 805.1 L558.1 813.8 L533.9 818.7 L505.4 818.3 L475.9 813.6 L449.2 807.4 L427.2 803.4 L409.1 804.2 L392.2 810.4 L373.5 819.8 L351.8 829.1 L327.5 835.6 L302.3 838.4 L276.9 838.1 L251.4 836.2 L225.4 833.4 L199.4 829.1 L176.1 822.0 L158.7 811.1 L149.6 796.7 L148.1 780.7 L150.1 765.3 L150.0 752.1 L143.7 741.1 L131.0 731.2 L116.1 720.7 L104.8 709.1 L102.0 696.5 L108.2 684.1 L120.4 672.7 L133.8 662.3 L145.0 652.2 L153.6 641.8 L161.9 631.4 L172.7 621.5 L186.8 613.0 L202.8 605.5 L217.9 597.6 L230.3 587.5 L240.8 573.9 L252.3 557.8 L268.2 542.2 L290.2 530.7 L317.2 526.3 L346.1 529.2 L373.5 537.5 L397.9 547.9 L419.4 557.7 L439.2 565.8 L457.9 572.9 L475.1 580.4 L490.0 589.0 L503.0 597.9 L516.2 605.8 L532.9 611.5 L555.0 615.3 L581.6 618.8 L608.4 624.2 L629.6 632.8 L641.0 644.6 L642.2 658.1 L637.2 671.7 L632.0 684.5 L631.2 696.5 Z" fill="none" stroke="#E9C39C" stroke-width="1.15" opacity="0.270"/><path d="M745.5 696.5 L725.2 712.9 L699.7 727.2 L676.4 739.8 L659.5 752.0 L648.1 764.8 L637.6 777.8 L622.8 789.6 L601.7 798.6 L575.6 804.3 L548.7 807.9 L524.6 811.6 L504.3 817.3 L486.1 825.3 L467.4 834.1 L446.3 841.4 L422.9 845.9 L398.4 848.4 L373.5 851.2 L347.3 856.7 L317.6 865.6 L283.5 875.8 L246.0 883.4 L209.1 884.6 L177.4 877.7 L154.2 863.6 L139.4 845.3 L130.3 826.3 L123.4 808.5 L117.3 792.2 L113.3 776.6 L113.9 761.1 L119.9 745.8 L129.1 731.5 L136.1 718.9 L135.3 707.6 L124.5 696.5 L106.5 684.1 L88.1 669.7 L76.6 654.1 L76.0 638.8 L85.3 624.8 L99.7 612.2 L114.1 599.7 L126.0 585.7 L136.5 570.1 L149.6 554.2 L168.4 540.3 L193.8 530.5 L223.7 525.1 L255.0 522.8 L285.6 521.5 L315.1 519.7 L344.3 518.5 L373.5 520.0 L401.4 526.8 L425.5 539.4 L444.2 555.8 L458.4 572.2 L471.5 584.5 L487.9 590.9 L510.4 592.3 L538.6 591.6 L569.4 592.1 L599.1 595.6 L626.0 602.2 L651.1 611.0 L676.7 621.1 L703.4 632.5 L728.9 645.7 L747.6 661.3 L754.0 678.8 L745.5 696.5 Z" fill="none" stroke="#E9C39C" stroke-width="1.50" opacity="0.263"/><path d="M716.9 696.5 L741.7 713.7 L756.6 732.6 L762.9 752.2 L763.7 772.3 L760.8 792.8 L752.6 813.3 L735.5 831.7 L706.5 845.5 L666.3 852.7 L619.9 853.1 L574.4 849.5 L535.4 846.0 L504.4 846.2 L479.2 851.3 L455.3 859.4 L429.8 866.8 L402.1 870.4 L373.5 869.4 L345.8 865.6 L318.9 861.8 L291.3 860.2 L261.6 860.6 L230.0 860.7 L198.6 858.1 L170.1 851.5 L145.0 841.8 L120.8 831.3 L93.3 821.9 L59.5 813.8 L20.5 805.2 L-17.2 793.7 L-45.0 777.8 L-55.5 757.8 L-47.2 736.1 L-24.7 715.1 L4.1 696.5 L31.6 680.6 L54.7 666.5 L74.4 653.8 L93.9 642.3 L114.8 632.2 L135.3 623.2 L151.6 613.7 L160.4 601.2 L162.3 583.9 L161.7 561.9 L165.6 538.1 L179.0 516.8 L203.2 501.7 L235.4 494.1 L270.9 492.2 L306.0 492.4 L339.9 491.7 L373.5 489.3 L407.9 486.9 L442.7 487.4 L475.8 493.0 L505.4 503.3 L531.2 516.2 L555.0 528.9 L578.9 540.1 L603.2 550.6 L624.9 562.5 L639.4 577.6 L643.4 595.8 L637.8 615.1 L628.8 633.0 L624.9 647.7 L633.0 659.4 L654.7 670.1 L685.4 682.0 L716.9 696.5 Z" fill="none" stroke="#E9C39C" stroke-width="0.80" opacity="0.255"/><path d="M695.3 696.5 L730.7 713.2 L762.3 733.1 L782.0 754.9 L787.7 776.9 L782.5 798.2 L771.7 819.1 L758.3 840.2 L741.6 861.2 L717.9 880.2 L684.6 894.3 L642.5 901.4 L595.7 901.8 L550.1 898.4 L509.3 895.5 L473.6 895.7 L440.5 899.1 L407.4 902.7 L373.5 902.3 L340.9 895.5 L311.9 883.0 L287.1 868.5 L264.3 856.5 L239.6 849.7 L209.7 847.8 L174.8 847.9 L137.5 846.5 L101.4 841.6 L67.6 833.4 L34.2 823.3 L-2.5 812.3 L-43.7 800.3 L-85.9 785.7 L-120.9 767.2 L-139.1 744.7 L-134.8 720.2 L-109.3 696.5 L-70.8 675.8 L-30.1 658.6 L4.9 643.8 L31.6 630.2 L53.3 616.9 L74.9 604.6 L99.2 594.1 L125.2 585.4 L149.0 576.8 L167.5 565.5 L181.0 549.9 L193.4 530.2 L210.0 509.5 L234.1 492.2 L265.4 481.2 L300.8 476.5 L337.2 475.2 L373.5 473.2 L411.0 468.0 L451.6 460.4 L495.4 454.0 L539.5 453.3 L579.6 460.8 L612.0 476.2 L636.3 496.4 L654.7 517.8 L670.4 538.2 L684.0 557.6 L693.3 577.1 L694.3 597.7 L685.5 618.9 L670.1 639.0 L656.3 656.1 L653.3 670.2 L666.7 682.8 L695.3 696.5 Z" fill="none" stroke="#E9C39C" stroke-width="1.15" opacity="0.247"/><path d="M873.3 696.5 L880.8 720.2 L870.2 743.2 L838.4 763.0 L790.4 777.5 L737.3 787.0 L690.8 794.2 L657.9 802.7 L638.3 815.0 L626.3 831.3 L614.9 850.0 L599.7 868.8 L579.9 887.2 L556.7 906.0 L530.8 926.9 L500.7 949.8 L464.5 971.6 L421.2 987.2 L373.5 991.8 L326.5 983.3 L285.0 964.4 L250.7 941.0 L221.3 919.6 L192.3 903.8 L160.1 893.7 L125.0 885.8 L91.0 876.1 L62.6 862.4 L41.7 845.0 L26.3 826.2 L11.8 807.9 L-5.0 790.7 L-23.1 773.5 L-37.6 755.3 L-42.6 735.7 L-36.3 715.7 L-23.1 696.5 L-12.2 678.5 L-12.6 660.2 L-27.4 639.2 L-51.9 613.9 L-75.1 584.9 L-85.5 555.2 L-76.4 528.5 L-48.4 507.7 L-7.5 493.3 L38.7 483.7 L85.6 477.2 L131.7 473.1 L177.9 472.7 L224.2 477.7 L268.7 488.0 L308.8 500.8 L343.1 510.9 L373.5 513.7 L404.6 507.1 L440.6 493.6 L482.7 479.2 L527.9 470.3 L571.1 470.6 L608.3 479.7 L639.2 494.2 L667.2 509.9 L696.4 524.3 L728.4 537.7 L760.6 552.0 L788.1 568.9 L807.4 588.6 L819.2 610.0 L828.3 631.5 L840.2 652.6 L856.7 674.0 L873.3 696.5 Z" fill="none" stroke="#E9C39C" stroke-width="1.50" opacity="0.240"/><path d="M862.5 696.5 L885.0 720.4 L895.7 745.6 L897.2 771.4 L894.6 797.7 L891.1 825.2 L884.4 853.8 L868.3 881.3 L836.1 903.5 L786.3 916.6 L723.7 919.1 L658.1 913.3 L598.7 904.6 L550.4 898.8 L512.0 899.4 L478.6 905.7 L445.5 914.1 L410.3 920.7 L373.5 923.9 L336.0 925.2 L297.1 927.6 L254.7 933.0 L207.1 940.5 L155.4 946.0 L104.6 945.0 L60.4 935.0 L26.3 917.2 L0.4 895.5 L-23.5 874.2 L-52.4 855.6 L-88.5 838.8 L-127.4 821.1 L-159.7 800.0 L-176.0 775.1 L-172.5 747.9 L-152.9 721.1 L-125.7 696.5 L-99.4 674.5 L-77.5 654.1 L-57.4 635.0 L-34.0 617.4 L-4.6 602.5 L28.6 590.3 L58.8 579.0 L79.1 564.8 L87.5 544.0 L88.5 515.4 L91.3 481.6 L104.6 448.1 L132.8 421.2 L174.0 404.2 L222.9 396.6 L273.9 395.1 L324.2 395.7 L373.5 396.9 L422.1 400.2 L468.7 408.6 L510.5 423.9 L545.0 445.2 L573.1 468.3 L598.7 488.6 L627.2 503.3 L661.5 513.5 L699.2 522.8 L733.5 535.4 L757.1 553.3 L767.3 575.3 L768.2 598.4 L768.9 619.8 L778.5 638.7 L800.7 656.4 L831.6 675.2 L862.5 696.5 Z" fill="none" stroke="#E9C39C" stroke-width="0.80" opacity="0.232"/><path d="M858.1 696.5 L898.9 721.0 L921.7 748.1 L922.3 774.9 L905.4 799.8 L881.1 822.8 L858.2 845.8 L839.3 870.5 L820.8 896.7 L796.5 922.1 L762.1 943.5 L718.6 959.4 L670.3 970.7 L621.8 980.5 L574.8 991.4 L527.5 1003.0 L477.6 1011.4 L425.1 1011.0 L373.5 998.0 L328.1 973.2 L292.2 942.5 L264.3 914.0 L238.5 894.4 L207.8 886.1 L168.2 886.2 L120.4 889.4 L68.3 890.5 L16.0 887.2 L-36.1 879.8 L-89.9 869.6 L-147.1 856.9 L-205.0 840.4 L-254.8 818.5 L-285.3 790.7 L-288.3 758.8 L-263.9 726.3 L-221.9 696.5 L-177.0 670.8 L-141.9 648.1 L-120.9 625.9 L-109.5 602.8 L-97.7 579.3 L-77.1 557.8 L-45.4 540.1 L-6.5 526.5 L32.8 514.8 L67.9 502.3 L99.1 487.5 L130.3 471.8 L165.4 458.5 L205.4 450.1 L248.0 446.6 L290.1 444.1 L331.0 437.2 L373.5 422.0 L422.3 399.4 L479.7 375.2 L543.8 357.6 L607.9 353.2 L664.2 364.0 L708.2 387.4 L739.8 417.5 L762.6 449.3 L779.6 479.9 L791.3 509.6 L794.8 539.2 L788.2 568.9 L773.8 597.0 L760.0 621.5 L757.9 641.6 L775.3 658.7 L812.0 676.1 L858.1 696.5 Z" fill="none" stroke="#E9C39C" stroke-width="1.15" opacity="0.225"/><path d="M963.4 696.5 L923.0 722.2 L870.1 743.2 L819.4 760.2 L783.7 776.2 L767.9 794.6 L767.1 817.7 L771.2 845.0 L770.7 874.3 L761.5 903.4 L744.6 932.4 L723.2 962.8 L698.0 996.3 L666.4 1031.5 L624.1 1063.7 L569.0 1085.5 L504.1 1091.4 L436.4 1079.9 L373.5 1055.8 L319.3 1027.0 L272.7 1001.4 L229.7 982.7 L187.2 969.5 L145.5 957.4 L107.7 942.1 L76.8 922.5 L51.9 900.9 L27.9 880.9 L-1.6 864.4 L-39.6 850.8 L-82.6 837.0 L-122.5 819.9 L-151.1 798.4 L-166.3 773.7 L-174.1 748.0 L-185.2 722.6 L-208.4 696.5 L-244.4 667.7 L-283.9 634.7 L-312.5 598.5 L-317.4 562.4 L-294.2 530.5 L-247.7 505.2 L-188.7 486.6 L-126.9 472.6 L-67.1 461.5 L-8.6 453.6 L51.0 450.9 L112.1 455.0 L171.2 465.1 L223.3 476.4 L265.7 481.9 L300.6 475.9 L334.3 457.4 L373.5 430.8 L421.4 404.5 L476.2 386.0 L533.0 379.1 L588.0 382.3 L640.7 391.0 L693.6 400.8 L748.9 410.6 L805.2 422.2 L856.5 438.9 L896.0 462.7 L920.3 492.3 L932.2 524.5 L939.6 555.8 L950.1 584.6 L965.6 611.9 L979.9 639.5 L982.1 668.1 L963.4 696.5 Z" fill="none" stroke="#E9C39C" stroke-width="1.50" opacity="0.217"/><path d="M896.6 696.5 L862.0 719.3 L845.7 740.9 L854.9 765.3 L885.2 795.9 L922.2 833.0 L948.2 873.5 L950.4 912.0 L926.3 943.9 L882.5 968.0 L829.2 986.1 L773.9 1001.5 L719.2 1015.8 L663.2 1027.8 L604.1 1034.3 L542.7 1033.2 L482.4 1025.7 L426.0 1016.6 L373.5 1012.0 L321.3 1015.0 L265.3 1023.9 L205.0 1031.9 L145.1 1031.2 L93.2 1017.1 L55.3 990.5 L31.3 957.2 L14.3 924.9 L-5.5 898.7 L-35.0 879.4 L-74.9 864.0 L-119.8 848.4 L-163.1 830.0 L-201.7 808.2 L-238.5 784.0 L-278.4 757.8 L-323.2 729.0 L-367.0 696.5 L-396.8 660.6 L-398.7 623.9 L-365.7 590.9 L-302.2 565.4 L-223.0 548.2 L-146.1 536.5 L-84.7 525.4 L-41.6 510.7 L-11.0 491.5 L16.9 469.9 L49.2 449.5 L87.4 432.2 L129.1 417.0 L171.9 401.1 L215.6 382.3 L262.9 362.0 L315.9 345.3 L373.5 338.1 L431.4 343.7 L484.7 360.2 L532.1 380.9 L577.3 398.0 L627.2 406.4 L687.1 406.9 L756.0 405.2 L826.5 408.6 L888.0 422.1 L933.0 446.2 L960.2 477.5 L974.5 511.5 L982.2 545.2 L985.6 577.7 L982.0 609.6 L966.0 640.8 L935.6 670.3 L896.6 696.5 Z" fill="none" stroke="#E9C39C" stroke-width="0.80" opacity="0.210"/><path d="M1085.2 696.5 L1046.9 728.0 L1022.6 757.6 L1007.2 787.1 L989.3 816.1 L959.1 842.2 L914.5 863.1 L861.9 878.9 L811.4 892.5 L770.2 908.1 L738.4 928.4 L709.7 952.6 L676.8 976.7 L635.8 996.5 L587.9 1010.7 L537.2 1022.3 L486.1 1036.9 L433.0 1058.9 L373.5 1087.6 L304.6 1116.8 L227.8 1137.2 L150.3 1140.9 L80.6 1125.7 L24.8 1095.4 L-17.3 1057.6 L-50.0 1019.1 L-77.8 983.4 L-101.5 949.9 L-117.3 916.2 L-121.2 881.3 L-113.8 846.6 L-103.4 815.1 L-102.6 789.0 L-122.3 767.4 L-164.1 747.1 L-218.9 724.2 L-270.2 696.5 L-303.3 664.9 L-312.2 632.0 L-302.0 600.0 L-284.3 568.8 L-269.3 536.7 L-259.3 501.7 L-248.4 464.3 L-226.9 427.8 L-188.2 397.0 L-132.9 374.7 L-67.7 360.4 L-0.9 350.7 L63.0 341.4 L124.4 331.4 L186.4 324.1 L250.7 325.0 L314.8 338.7 L373.5 364.7 L422.7 396.7 L463.2 425.3 L501.1 442.7 L544.2 446.4 L597.6 440.3 L660.4 431.5 L727.4 427.0 L793.4 429.7 L857.0 438.7 L921.0 451.5 L989.1 466.6 L1060.0 485.2 L1125.0 509.6 L1171.0 541.7 L1187.0 580.3 L1170.7 621.6 L1131.3 661.2 L1085.2 696.5 Z" fill="none" stroke="#E9C39C" stroke-width="1.15" opacity="0.202"/><path d="M1176.7 696.5 L1168.9 733.6 L1129.0 767.6 L1063.6 795.1 L989.0 816.0 L922.9 833.2 L875.7 851.1 L846.7 873.2 L827.2 899.6 L807.0 927.7 L780.6 955.3 L748.5 982.1 L713.8 1010.9 L678.0 1044.8 L638.1 1084.3 L588.5 1124.5 L525.7 1156.7 L451.5 1172.1 L373.5 1166.7 L300.2 1143.4 L236.5 1111.1 L181.1 1079.6 L128.9 1055.0 L75.4 1037.5 L20.7 1022.4 L-30.3 1004.1 L-72.3 979.9 L-104.1 951.3 L-130.5 922.1 L-159.3 895.5 L-195.6 871.8 L-237.0 848.4 L-273.7 822.2 L-295.0 792.1 L-296.2 759.5 L-283.2 727.2 L-270.5 696.5 L-272.8 666.4 L-296.2 633.5 L-334.3 595.4 L-370.9 552.0 L-388.7 507.0 L-377.6 465.2 L-338.8 430.5 L-281.4 403.4 L-216.3 382.0 L-149.6 364.0 L-81.6 349.8 L-9.8 342.4 L66.4 345.3 L143.2 359.0 L214.0 378.9 L274.4 396.5 L325.4 403.2 L373.5 394.8 L426.3 374.5 L487.8 351.0 L555.6 334.0 L623.8 329.7 L687.0 338.0 L744.3 354.0 L799.8 371.8 L857.9 388.6 L919.2 405.5 L978.1 426.0 L1026.1 452.8 L1057.7 485.9 L1074.7 522.2 L1086.2 558.2 L1102.9 592.3 L1129.0 625.5 L1158.5 659.9 L1176.7 696.5 Z" fill="none" stroke="#E9C39C" stroke-width="1.50" opacity="0.195"/><path d="M1184.9 696.5 L1188.0 734.5 L1196.9 774.0 L1202.0 814.9 L1191.2 855.2 L1157.9 891.6 L1105.5 921.9 L1044.4 947.1 L985.2 970.3 L932.1 994.4 L881.5 1019.4 L825.6 1040.8 L759.1 1052.7 L683.6 1051.2 L606.7 1038.2 L536.8 1021.4 L477.4 1010.8 L425.5 1013.2 L373.5 1029.4 L315.0 1053.1 L248.2 1075.5 L175.9 1089.9 L101.9 1094.5 L27.6 1092.2 L-49.0 1086.9 L-129.9 1079.9 L-212.1 1068.8 L-286.7 1048.7 L-341.1 1016.3 L-366.4 972.8 L-363.4 923.4 L-343.8 874.9 L-324.6 832.1 L-318.9 795.5 L-328.9 762.6 L-345.3 730.1 L-354.1 696.5 L-345.1 663.0 L-318.7 631.4 L-284.6 602.5 L-255.0 574.5 L-236.9 544.7 L-227.3 511.5 L-216.2 476.3 L-193.7 442.7 L-156.1 414.1 L-107.8 390.6 L-57.2 368.5 L-10.4 341.8 L33.2 307.3 L80.4 266.9 L138.4 228.6 L210.2 202.4 L291.4 195.6 L373.5 208.6 L449.2 235.4 L515.5 267.2 L574.2 297.0 L628.3 323.2 L678.0 348.3 L720.5 376.0 L752.9 407.6 L777.1 440.0 L801.5 468.3 L837.8 488.7 L894.3 502.0 L969.4 513.0 L1051.0 528.0 L1121.5 551.3 L1167.6 583.0 L1186.7 620.1 L1187.8 658.5 L1184.9 696.5 Z" fill="none" stroke="#E9C39C" stroke-width="0.80" opacity="0.188"/><path d="M1096.4 696.5 L1025.7 727.0 L961.0 751.8 L920.9 774.8 L916.4 801.9 L943.8 838.4 L985.9 885.1 L1019.8 937.9 L1027.8 989.3 L1004.3 1032.9 L955.4 1066.4 L893.0 1092.2 L826.3 1114.7 L758.4 1136.8 L687.6 1156.7 L611.4 1170.1 L530.9 1172.6 L450.3 1164.4 L373.5 1150.5 L301.1 1138.2 L229.4 1132.6 L154.5 1132.4 L77.1 1130.9 L4.3 1118.8 L-53.2 1090.7 L-87.4 1047.6 L-99.6 997.2 L-100.6 949.4 L-106.4 911.3 L-129.2 884.3 L-172.3 864.6 L-229.3 846.5 L-290.4 825.4 L-349.4 799.8 L-406.9 769.9 L-468.0 735.8 L-534.4 696.5 L-598.9 651.2 L-645.0 600.7 L-654.3 549.6 L-616.1 504.4 L-534.2 470.8 L-426.4 450.2 L-316.1 439.0 L-221.5 430.2 L-148.9 417.9 L-92.8 400.1 L-42.4 379.7 L10.9 361.5 L69.2 348.5 L129.8 339.4 L189.4 329.9 L247.8 316.1 L308.2 298.0 L373.5 280.7 L443.2 271.8 L512.6 276.0 L576.6 292.3 L634.9 313.6 L693.5 330.6 L762.2 337.5 L848.0 335.2 L948.7 331.0 L1052.5 334.4 L1142.9 352.2 L1206.6 385.4 L1240.0 429.7 L1248.7 478.9 L1242.0 527.9 L1225.9 574.7 L1199.1 618.9 L1156.6 660.0 L1096.4 696.5 Z" fill="none" stroke="#E9C39C" stroke-width="1.15" opacity="0.180"/><path d="M1422.1 696.5 L1370.0 743.0 L1292.3 782.9 L1209.2 815.9 L1135.2 844.4 L1073.9 870.7 L1019.2 895.3 L963.0 916.7 L902.7 933.3 L843.1 947.0 L792.9 963.1 L757.2 988.8 L732.6 1028.2 L708.2 1079.3 L671.6 1133.3 L615.9 1179.0 L542.5 1207.7 L459.1 1218.2 L373.5 1215.9 L289.4 1209.3 L205.7 1204.2 L120.4 1200.3 L35.2 1192.3 L-43.9 1174.0 L-109.4 1142.7 L-158.0 1101.4 L-193.6 1057.0 L-225.3 1015.9 L-260.8 980.4 L-300.4 948.2 L-335.5 914.8 L-353.5 877.3 L-347.5 836.5 L-322.2 795.9 L-293.9 759.3 L-282.5 727.1 L-300.5 696.5 L-346.0 663.0 L-404.1 623.4 L-454.7 578.2 L-483.5 530.2 L-487.3 482.4 L-472.7 436.0 L-448.1 389.7 L-416.9 342.8 L-375.0 297.3 L-314.3 259.3 L-230.8 236.2 L-128.7 232.6 L-19.8 246.6 L82.5 270.0 L170.1 291.5 L243.4 303.0 L309.0 303.0 L373.5 297.2 L439.5 294.1 L504.8 299.4 L566.3 312.9 L624.3 329.0 L684.1 341.4 L751.9 347.0 L830.0 348.8 L913.7 353.2 L992.8 366.3 L1058.8 389.9 L1110.6 421.3 L1156.4 455.5 L1207.7 489.1 L1271.2 522.3 L1341.7 558.2 L1402.5 599.8 L1433.5 647.1 L1422.1 696.5 Z" fill="none" stroke="#E9C39C" stroke-width="1.50" opacity="0.172"/><path d="M1153.8 696.5 L1187.9 734.5 L1238.8 777.9 L1291.8 827.8 L1325.0 881.2 L1320.7 932.1 L1274.8 974.1 L1198.2 1004.5 L1110.4 1026.3 L1028.6 1045.9 L960.0 1069.3 L900.4 1097.9 L840.1 1127.6 L771.6 1151.9 L694.0 1166.2 L611.9 1171.1 L530.6 1171.6 L451.8 1173.6 L373.5 1178.8 L293.7 1183.0 L214.2 1178.6 L141.1 1159.2 L81.0 1125.2 L35.1 1083.6 L-4.4 1045.6 L-51.0 1019.9 L-116.9 1008.2 L-205.0 1005.1 L-306.8 1001.0 L-406.4 987.8 L-489.5 962.3 L-550.6 926.4 L-593.9 884.3 L-627.3 839.5 L-654.1 793.2 L-669.1 745.2 L-660.6 696.5 L-619.6 650.2 L-548.0 609.9 L-460.8 577.3 L-380.0 550.3 L-323.7 523.1 L-296.5 490.2 L-288.0 449.5 L-279.5 404.3 L-254.3 361.7 L-206.2 328.0 L-140.3 305.2 L-67.1 289.5 L4.8 274.9 L73.5 256.9 L142.3 236.3 L215.5 218.6 L293.7 209.6 L373.5 211.1 L451.9 219.0 L529.2 225.6 L610.7 224.5 L701.6 215.8 L801.9 206.6 L902.8 207.6 L989.7 227.2 L1049.4 266.9 L1078.0 320.8 L1083.1 379.0 L1079.9 432.7 L1081.8 478.4 L1093.8 517.4 L1111.1 553.4 L1125.3 589.1 L1132.7 625.1 L1138.4 660.8 L1153.8 696.5 Z" fill="none" stroke="#E9C39C" stroke-width="0.80" opacity="0.165"/><path d="M1498.4 696.5 L1513.7 749.7 L1518.6 804.2 L1506.6 858.5 L1466.0 908.6 L1389.2 949.1 L1280.5 975.8 L1156.9 989.1 L1040.4 995.0 L947.6 1002.7 L881.7 1019.6 L833.5 1046.9 L787.9 1079.3 L733.5 1108.2 L667.4 1127.1 L594.3 1135.9 L520.3 1140.3 L447.6 1147.8 L373.5 1162.4 L294.0 1181.2 L208.0 1197.1 L119.3 1202.5 L33.3 1195.1 L-48.0 1178.7 L-128.9 1160.6 L-217.0 1146.3 L-317.1 1135.5 L-424.1 1121.9 L-522.1 1097.3 L-591.1 1056.8 L-617.2 1001.6 L-600.4 938.8 L-555.2 876.8 L-502.5 821.7 L-459.0 774.8 L-429.4 734.0 L-407.8 696.5 L-385.2 661.1 L-358.6 627.7 L-334.6 595.3 L-325.3 560.9 L-338.4 519.5 L-370.3 467.5 L-404.6 405.9 L-419.8 341.5 L-400.3 283.8 L-343.5 240.8 L-259.8 214.1 L-165.2 198.9 L-72.1 186.8 L15.4 171.8 L100.9 153.9 L189.2 139.1 L281.4 135.1 L373.5 145.7 L460.2 168.5 L539.1 195.9 L612.7 220.5 L685.3 239.8 L757.6 257.3 L824.2 280.2 L876.3 313.6 L908.2 356.7 L923.8 403.0 L938.1 443.9 L970.3 473.7 L1033.6 493.3 L1127.2 509.1 L1236.0 529.1 L1338.7 558.6 L1418.3 598.3 L1469.6 645.4 L1498.4 696.5 Z" fill="none" stroke="#E9C39C" stroke-width="1.15" opacity="0.157"/><path d="M1411.3 696.5 L1369.7 743.0 L1296.0 783.3 L1198.5 814.4 L1099.2 837.4 L1023.8 858.2 L988.5 885.9 L992.0 927.5 L1016.7 984.4 L1037.9 1050.9 L1035.9 1117.6 L1003.4 1176.3 L944.3 1223.8 L867.7 1261.8 L780.8 1293.3 L686.0 1318.4 L583.8 1332.5 L477.3 1329.0 L373.5 1304.2 L280.8 1261.7 L203.0 1212.4 L135.8 1169.6 L69.2 1142.4 L-6.4 1131.1 L-92.8 1127.3 L-181.4 1119.2 L-258.2 1098.1 L-312.6 1062.5 L-344.1 1017.7 L-363.3 971.7 L-384.6 930.0 L-417.5 893.3 L-460.6 858.5 L-504.4 822.0 L-539.3 782.4 L-563.8 740.3 L-586.7 696.5 L-620.7 650.1 L-671.7 598.2 L-731.4 538.6 L-778.3 472.9 L-787.0 407.9 L-741.9 353.1 L-644.6 316.3 L-513.8 299.4 L-374.9 297.4 L-248.4 301.3 L-142.6 303.4 L-54.7 300.9 L23.3 296.0 L97.4 292.0 L168.8 289.1 L236.8 283.1 L303.1 267.4 L373.5 238.6 L454.9 200.2 L549.9 163.0 L653.0 140.3 L752.6 141.1 L838.0 165.3 L906.2 204.4 L964.6 246.3 L1026.1 281.8 L1100.2 309.0 L1186.4 332.7 L1273.4 360.5 L1345.7 397.2 L1393.3 442.9 L1416.9 494.0 L1425.5 546.2 L1428.4 597.3 L1426.6 647.4 L1411.3 696.5 Z" fill="none" stroke="#E9C39C" stroke-width="1.50" opacity="0.150"/><path d="M1685.1 696.5 L1676.2 757.3 L1631.2 814.8 L1566.7 867.0 L1492.3 913.7 L1408.0 953.8 L1308.5 984.4 L1192.7 1002.4 L1069.1 1007.8 L954.4 1006.3 L864.7 1008.7 L806.1 1026.0 L770.9 1063.6 L741.8 1117.7 L701.1 1176.6 L639.7 1226.4 L559.2 1258.2 L467.9 1271.8 L373.5 1274.5 L278.6 1274.9 L181.4 1277.5 L80.4 1279.9 L-21.5 1275.4 L-117.6 1258.3 L-202.1 1228.2 L-275.3 1190.7 L-344.9 1153.2 L-420.4 1119.9 L-504.4 1089.4 L-587.5 1055.4 L-649.9 1011.7 L-671.8 956.5 L-645.0 894.2 L-579.7 832.8 L-501.0 778.8 L-436.7 734.3 L-404.7 696.5 L-405.7 660.2 L-426.8 621.3 L-451.9 578.6 L-471.4 532.5 L-486.0 482.8 L-501.3 427.1 L-519.2 363.1 L-531.8 291.4 L-523.3 218.2 L-478.6 154.9 L-392.6 113.0 L-274.0 98.4 L-141.4 107.6 L-13.6 129.2 L98.8 149.8 L196.3 160.5 L285.8 161.5 L373.5 159.9 L460.8 164.6 L544.3 179.9 L621.3 203.3 L693.3 228.0 L765.6 248.1 L842.8 263.0 L923.4 277.7 L998.4 299.4 L1057.3 331.8 L1096.5 373.0 L1124.4 416.1 L1159.9 454.4 L1222.2 485.5 L1318.8 513.0 L1438.8 544.3 L1557.0 585.2 L1645.1 637.2 L1685.1 696.5 Z" fill="none" stroke="#E9C39C" stroke-width="0.80" opacity="0.142"/><line x1="147" y1="476" x2="176" y2="655" stroke="#E9C39C" fill="none" stroke-linecap="round" stroke-width="0.9" opacity="0.118"/><line x1="147" y1="476" x2="231" y2="438" stroke="#E9C39C" fill="none" stroke-linecap="round" stroke-width="0.9" opacity="0.208"/><line x1="147" y1="476" x2="282" y2="739" stroke="#E9C39C" fill="none" stroke-linecap="round" stroke-width="0.9" opacity="0.004"/><line x1="147" y1="476" x2="148" y2="248" stroke="#E9C39C" fill="none" stroke-linecap="round" stroke-width="0.9" opacity="0.073"/><line x1="147" y1="476" x2="413" y2="538" stroke="#E9C39C" fill="none" stroke-linecap="round" stroke-width="0.9" opacity="0.027"/><line x1="147" y1="476" x2="302" y2="638" stroke="#E9C39C" fill="none" stroke-linecap="round" stroke-width="0.9" opacity="0.075"/><line x1="147" y1="476" x2="369" y2="574" stroke="#E9C39C" fill="none" stroke-linecap="round" stroke-width="0.9" opacity="0.057"/><line x1="1300" y1="807" x2="1138" y2="696" stroke="#E9C39C" fill="none" stroke-linecap="round" stroke-width="0.9" opacity="0.103"/><line x1="176" y1="655" x2="231" y2="438" stroke="#E9C39C" fill="none" stroke-linecap="round" stroke-width="0.9" opacity="0.076"/><line x1="176" y1="655" x2="282" y2="739" stroke="#E9C39C" fill="none" stroke-linecap="round" stroke-width="0.9" opacity="0.164"/><line x1="176" y1="655" x2="397" y2="774" stroke="#E9C39C" fill="none" stroke-linecap="round" stroke-width="0.9" opacity="0.049"/><line x1="176" y1="655" x2="413" y2="538" stroke="#E9C39C" fill="none" stroke-linecap="round" stroke-width="0.9" opacity="0.036"/><line x1="176" y1="655" x2="302" y2="638" stroke="#E9C39C" fill="none" stroke-linecap="round" stroke-width="0.9" opacity="0.173"/><line x1="176" y1="655" x2="369" y2="574" stroke="#E9C39C" fill="none" stroke-linecap="round" stroke-width="0.9" opacity="0.091"/><line x1="176" y1="655" x2="403" y2="692" stroke="#E9C39C" fill="none" stroke-linecap="round" stroke-width="0.9" opacity="0.070"/><line x1="231" y1="438" x2="498" y2="332" stroke="#E9C39C" fill="none" stroke-linecap="round" stroke-width="0.9" opacity="0.013"/><line x1="231" y1="438" x2="148" y2="248" stroke="#E9C39C" fill="none" stroke-linecap="round" stroke-width="0.9" opacity="0.093"/><line x1="231" y1="438" x2="413" y2="538" stroke="#E9C39C" fill="none" stroke-linecap="round" stroke-width="0.9" opacity="0.093"/><line x1="231" y1="438" x2="302" y2="638" stroke="#E9C39C" fill="none" stroke-linecap="round" stroke-width="0.9" opacity="0.088"/><line x1="231" y1="438" x2="369" y2="574" stroke="#E9C39C" fill="none" stroke-linecap="round" stroke-width="0.9" opacity="0.106"/><line x1="231" y1="438" x2="444" y2="406" stroke="#E9C39C" fill="none" stroke-linecap="round" stroke-width="0.9" opacity="0.085"/><line x1="231" y1="438" x2="387" y2="202" stroke="#E9C39C" fill="none" stroke-linecap="round" stroke-width="0.9" opacity="0.018"/><line x1="282" y1="739" x2="397" y2="774" stroke="#E9C39C" fill="none" stroke-linecap="round" stroke-width="0.9" opacity="0.180"/><line x1="282" y1="739" x2="413" y2="538" stroke="#E9C39C" fill="none" stroke-linecap="round" stroke-width="0.9" opacity="0.060"/><line x1="282" y1="739" x2="302" y2="638" stroke="#E9C39C" fill="none" stroke-linecap="round" stroke-width="0.9" opacity="0.197"/><line x1="282" y1="739" x2="369" y2="574" stroke="#E9C39C" fill="none" stroke-linecap="round" stroke-width="0.9" opacity="0.113"/><line x1="282" y1="739" x2="548" y2="836" stroke="#E9C39C" fill="none" stroke-linecap="round" stroke-width="0.9" opacity="0.017"/><line x1="282" y1="739" x2="403" y2="692" stroke="#E9C39C" fill="none" stroke-linecap="round" stroke-width="0.9" opacity="0.170"/><line x1="498" y1="332" x2="760" y2="436" stroke="#E9C39C" fill="none" stroke-linecap="round" stroke-width="0.9" opacity="0.019"/><line x1="498" y1="332" x2="413" y2="538" stroke="#E9C39C" fill="none" stroke-linecap="round" stroke-width="0.9" opacity="0.077"/><line x1="498" y1="332" x2="369" y2="574" stroke="#E9C39C" fill="none" stroke-linecap="round" stroke-width="0.9" opacity="0.026"/><line x1="498" y1="332" x2="756" y2="386" stroke="#E9C39C" fill="none" stroke-linecap="round" stroke-width="0.9" opacity="0.037"/><line x1="498" y1="332" x2="444" y2="406" stroke="#E9C39C" fill="none" stroke-linecap="round" stroke-width="0.9" opacity="0.208"/><line x1="498" y1="332" x2="387" y2="202" stroke="#E9C39C" fill="none" stroke-linecap="round" stroke-width="0.9" opacity="0.129"/><line x1="498" y1="332" x2="473" y2="241" stroke="#E9C39C" fill="none" stroke-linecap="round" stroke-width="0.9" opacity="0.205"/><line x1="148" y1="248" x2="387" y2="202" stroke="#E9C39C" fill="none" stroke-linecap="round" stroke-width="0.9" opacity="0.056"/><line x1="397" y1="774" x2="413" y2="538" stroke="#E9C39C" fill="none" stroke-linecap="round" stroke-width="0.9" opacity="0.063"/><line x1="397" y1="774" x2="302" y2="638" stroke="#E9C39C" fill="none" stroke-linecap="round" stroke-width="0.9" opacity="0.134"/><line x1="397" y1="774" x2="369" y2="574" stroke="#E9C39C" fill="none" stroke-linecap="round" stroke-width="0.9" opacity="0.098"/><line x1="397" y1="774" x2="548" y2="836" stroke="#E9C39C" fill="none" stroke-linecap="round" stroke-width="0.9" opacity="0.137"/><line x1="397" y1="774" x2="403" y2="692" stroke="#E9C39C" fill="none" stroke-linecap="round" stroke-width="0.9" opacity="0.217"/><line x1="760" y1="436" x2="1024" y2="325" stroke="#E9C39C" fill="none" stroke-linecap="round" stroke-width="0.9" opacity="0.013"/><line x1="760" y1="436" x2="756" y2="386" stroke="#E9C39C" fill="none" stroke-linecap="round" stroke-width="0.9" opacity="0.249"/><line x1="760" y1="436" x2="951" y2="461" stroke="#E9C39C" fill="none" stroke-linecap="round" stroke-width="0.9" opacity="0.107"/><line x1="760" y1="436" x2="884" y2="213" stroke="#E9C39C" fill="none" stroke-linecap="round" stroke-width="0.9" opacity="0.045"/><line x1="760" y1="436" x2="882" y2="561" stroke="#E9C39C" fill="none" stroke-linecap="round" stroke-width="0.9" opacity="0.125"/><line x1="760" y1="436" x2="1013" y2="524" stroke="#E9C39C" fill="none" stroke-linecap="round" stroke-width="0.9" opacity="0.032"/><line x1="1024" y1="325" x2="756" y2="386" stroke="#E9C39C" fill="none" stroke-linecap="round" stroke-width="0.9" opacity="0.025"/><line x1="1024" y1="325" x2="951" y2="461" stroke="#E9C39C" fill="none" stroke-linecap="round" stroke-width="0.9" opacity="0.146"/><line x1="1024" y1="325" x2="884" y2="213" stroke="#E9C39C" fill="none" stroke-linecap="round" stroke-width="0.9" opacity="0.121"/><line x1="1024" y1="325" x2="1101" y2="483" stroke="#E9C39C" fill="none" stroke-linecap="round" stroke-width="0.9" opacity="0.125"/><line x1="1024" y1="325" x2="882" y2="561" stroke="#E9C39C" fill="none" stroke-linecap="round" stroke-width="0.9" opacity="0.024"/><line x1="1024" y1="325" x2="1013" y2="524" stroke="#E9C39C" fill="none" stroke-linecap="round" stroke-width="0.9" opacity="0.101"/><line x1="413" y1="538" x2="302" y2="638" stroke="#E9C39C" fill="none" stroke-linecap="round" stroke-width="0.9" opacity="0.150"/><line x1="413" y1="538" x2="369" y2="574" stroke="#E9C39C" fill="none" stroke-linecap="round" stroke-width="0.9" opacity="0.243"/><line x1="413" y1="538" x2="403" y2="692" stroke="#E9C39C" fill="none" stroke-linecap="round" stroke-width="0.9" opacity="0.146"/><line x1="413" y1="538" x2="444" y2="406" stroke="#E9C39C" fill="none" stroke-linecap="round" stroke-width="0.9" opacity="0.164"/><line x1="302" y1="638" x2="369" y2="574" stroke="#E9C39C" fill="none" stroke-linecap="round" stroke-width="0.9" opacity="0.207"/><line x1="302" y1="638" x2="403" y2="692" stroke="#E9C39C" fill="none" stroke-linecap="round" stroke-width="0.9" opacity="0.186"/><line x1="302" y1="638" x2="444" y2="406" stroke="#E9C39C" fill="none" stroke-linecap="round" stroke-width="0.9" opacity="0.028"/><line x1="369" y1="574" x2="403" y2="692" stroke="#E9C39C" fill="none" stroke-linecap="round" stroke-width="0.9" opacity="0.178"/><line x1="369" y1="574" x2="444" y2="406" stroke="#E9C39C" fill="none" stroke-linecap="round" stroke-width="0.9" opacity="0.116"/><line x1="756" y1="386" x2="951" y2="461" stroke="#E9C39C" fill="none" stroke-linecap="round" stroke-width="0.9" opacity="0.090"/><line x1="756" y1="386" x2="884" y2="213" stroke="#E9C39C" fill="none" stroke-linecap="round" stroke-width="0.9" opacity="0.085"/><line x1="756" y1="386" x2="882" y2="561" stroke="#E9C39C" fill="none" stroke-linecap="round" stroke-width="0.9" opacity="0.084"/><line x1="756" y1="386" x2="1013" y2="524" stroke="#E9C39C" fill="none" stroke-linecap="round" stroke-width="0.9" opacity="0.009"/><line x1="548" y1="836" x2="403" y2="692" stroke="#E9C39C" fill="none" stroke-linecap="round" stroke-width="0.9" opacity="0.096"/><line x1="951" y1="461" x2="884" y2="213" stroke="#E9C39C" fill="none" stroke-linecap="round" stroke-width="0.9" opacity="0.043"/><line x1="951" y1="461" x2="1101" y2="483" stroke="#E9C39C" fill="none" stroke-linecap="round" stroke-width="0.9" opacity="0.149"/><line x1="951" y1="461" x2="882" y2="561" stroke="#E9C39C" fill="none" stroke-linecap="round" stroke-width="0.9" opacity="0.178"/><line x1="951" y1="461" x2="1013" y2="524" stroke="#E9C39C" fill="none" stroke-linecap="round" stroke-width="0.9" opacity="0.213"/><line x1="403" y1="692" x2="444" y2="406" stroke="#E9C39C" fill="none" stroke-linecap="round" stroke-width="0.9" opacity="0.011"/><line x1="444" y1="406" x2="387" y2="202" stroke="#E9C39C" fill="none" stroke-linecap="round" stroke-width="0.9" opacity="0.089"/><line x1="444" y1="406" x2="473" y2="241" stroke="#E9C39C" fill="none" stroke-linecap="round" stroke-width="0.9" opacity="0.132"/><line x1="1138" y1="696" x2="1101" y2="483" stroke="#E9C39C" fill="none" stroke-linecap="round" stroke-width="0.9" opacity="0.084"/><line x1="1138" y1="696" x2="882" y2="561" stroke="#E9C39C" fill="none" stroke-linecap="round" stroke-width="0.9" opacity="0.011"/><line x1="1138" y1="696" x2="1013" y2="524" stroke="#E9C39C" fill="none" stroke-linecap="round" stroke-width="0.9" opacity="0.087"/><line x1="387" y1="202" x2="473" y2="241" stroke="#E9C39C" fill="none" stroke-linecap="round" stroke-width="0.9" opacity="0.206"/><line x1="1101" y1="483" x2="882" y2="561" stroke="#E9C39C" fill="none" stroke-linecap="round" stroke-width="0.9" opacity="0.068"/><line x1="1101" y1="483" x2="1013" y2="524" stroke="#E9C39C" fill="none" stroke-linecap="round" stroke-width="0.9" opacity="0.203"/><line x1="882" y1="561" x2="1013" y2="524" stroke="#E9C39C" fill="none" stroke-linecap="round" stroke-width="0.9" opacity="0.164"/><circle cx="147" cy="476" r="5.2" fill="#E9C39C" opacity="0.5"/><circle cx="1300" cy="807" r="2.2" fill="#E9C39C" opacity="0.5"/><circle cx="176" cy="655" r="4.5" fill="#E9C39C" opacity="0.5"/><circle cx="231" cy="438" r="5.0" fill="#E9C39C" opacity="0.5"/><circle cx="282" cy="739" r="5.8" fill="#E9C39C" opacity="0.5"/><circle cx="498" cy="332" r="3.4" fill="#E9C39C" opacity="0.5"/><circle cx="148" cy="248" r="6.0" fill="#E9C39C" opacity="0.5"/><circle cx="397" cy="774" r="4.4" fill="#E9C39C" opacity="0.5"/><circle cx="760" cy="436" r="5.6" fill="#E9C39C" opacity="0.5"/><circle cx="1474" cy="458" r="5.0" fill="#E9C39C" opacity="0.5"/><circle cx="1024" cy="325" r="5.8" fill="#E9C39C" opacity="0.5"/><circle cx="413" cy="538" r="5.1" fill="#E9C39C" opacity="0.5"/><circle cx="302" cy="638" r="5.3" fill="#E9C39C" opacity="0.5"/><circle cx="369" cy="574" r="2.4" fill="#E9C39C" opacity="0.5"/><circle cx="756" cy="386" r="2.2" fill="#E9C39C" opacity="0.5"/><circle cx="548" cy="836" r="2.3" fill="#E9C39C" opacity="0.5"/><circle cx="951" cy="461" r="4.6" fill="#E9C39C" opacity="0.5"/><circle cx="403" cy="692" r="5.4" fill="#E9C39C" opacity="0.5"/><circle cx="884" cy="213" r="5.4" fill="#E9C39C" opacity="0.5"/><circle cx="444" cy="406" r="4.6" fill="#E9C39C" opacity="0.5"/><circle cx="1138" cy="696" r="5.6" fill="#E9C39C" opacity="0.5"/><circle cx="387" cy="202" r="5.8" fill="#E9C39C" opacity="0.5"/><circle cx="1101" cy="483" r="3.4" fill="#E9C39C" opacity="0.5"/><circle cx="882" cy="561" r="2.5" fill="#E9C39C" opacity="0.5"/><circle cx="473" cy="241" r="3.5" fill="#E9C39C" opacity="0.5"/><circle cx="1013" cy="524" r="4.2" fill="#E9C39C" opacity="0.5"/><rect width="1600" height="1000" fill="url(#vgart-digital)"/><rect width="1600" height="1000" filter="url(#nzart-digital)" opacity="0.055"/></svg>