<svg xmlns="http://www.w3.org/2000/svg" viewBox="0 0 1600 1000" width="1600" height="1000" preserveAspectRatio="xMidYMid slice"><defs><linearGradient id="bgart-p7" x1="0" y1="0" x2="0.6" y2="1"><stop offset="0" stop-color="#38240F"/><stop offset="1" stop-color="#160E07"/></linearGradient><radialGradient id="glart-p7" cx="0.38" cy="0.26" r="0.75"><stop offset="0" stop-color="#D98A3C" stop-opacity="0.92"/><stop offset="0.5" stop-color="#D98A3C" stop-opacity="0.30"/><stop offset="1" stop-color="#D98A3C" stop-opacity="0"/></radialGradient><linearGradient id="vgart-p7" x1="0" y1="0" x2="0" y2="1"><stop offset="0" stop-color="#000" stop-opacity="0.22"/><stop offset="0.45" stop-color="#000" stop-opacity="0"/><stop offset="1" stop-color="#000" stop-opacity="0.48"/></linearGradient><pattern id="grart-p7" width="46" height="46" patternUnits="userSpaceOnUse"><path d="M46 0 L0 0 0 46" fill="none" stroke="#F6D9B6" stroke-width="0.6" opacity="0.13"/></pattern><filter id="nzart-p7"><feTurbulence type="fractalNoise" baseFrequency="0.9" numOctaves="3" seed="22"/><feColorMatrix type="saturate" values="0"/></filter></defs><rect width="1600" height="1000" fill="url(#bgart-p7)"/><rect width="1600" height="1000" fill="url(#grart-p7)"/><rect width="1600" height="1000" fill="url(#glart-p7)"/><path d="M689.8 260.2 L687.7 263.6 L684.6 266.8 L681.7 269.8 L680.1 272.9 L679.7 276.4 L679.5 280.1 L678.3 283.9 L675.6 287.4 L671.6 290.5 L667.0 293.4 L662.5 296.5 L658.1 300.1 L653.2 304.0 L647.1 307.4 L639.6 309.3 L631.1 309.2 L622.6 307.0 L614.9 303.7 L608.4 300.2 L602.6 297.4 L597.2 295.5 L591.8 294.1 L586.5 292.8 L581.6 291.0 L577.1 289.1 L572.5 287.2 L567.1 285.7 L560.2 284.7 L552.1 283.7 L544.0 282.1 L537.3 279.5 L533.4 276.1 L532.3 272.1 L532.9 268.0 L533.5 264.0 L533.2 260.2 L531.7 256.4 L530.3 252.3 L530.4 248.2 L532.9 244.3 L537.7 241.1 L543.8 238.4 L550.0 236.0 L555.6 233.7 L560.9 231.4 L566.4 229.4 L572.7 228.1 L579.8 227.8 L587.0 228.3 L593.5 228.9 L599.0 228.6 L603.9 226.9 L608.9 223.8 L614.9 220.2 L622.0 217.0 L629.8 215.1 L637.7 214.8 L645.4 215.6 L652.7 217.1 L659.9 218.7 L666.9 220.6 L673.2 223.2 L677.8 226.7 L680.2 231.0 L680.4 235.8 L679.6 240.3 L679.3 244.2 L680.6 247.5 L683.6 250.4 L687.1 253.5 L689.6 256.8 L689.8 260.2 Z" fill="none" stroke="#F6D9B6" stroke-width="0.80" opacity="0.550"/><path d="M719.0 260.2 L727.3 265.5 L735.4 271.6 L740.4 278.2 L740.7 284.7 L736.4 290.5 L729.6 295.6 L722.5 300.4 L716.4 305.7 L711.2 311.6 L705.4 317.8 L697.5 323.1 L686.9 326.8 L674.3 328.2 L661.1 327.9 L648.3 326.8 L636.5 325.6 L625.5 324.5 L614.9 323.1 L605.0 320.4 L596.4 316.2 L589.4 311.0 L583.5 306.2 L577.4 303.2 L569.2 302.5 L557.9 303.7 L543.7 305.5 L528.4 306.4 L514.1 305.4 L502.2 302.3 L492.7 297.9 L484.9 292.6 L477.8 286.9 L471.7 280.7 L467.9 274.1 L468.1 267.1 L473.3 260.2 L482.5 254.1 L493.4 248.8 L503.1 244.3 L509.8 239.8 L513.8 235.1 L516.8 230.0 L521.2 225.2 L528.2 221.4 L537.4 218.9 L547.4 217.4 L556.6 215.8 L564.1 213.3 L570.5 209.5 L577.1 204.8 L584.7 200.2 L593.8 196.5 L604.0 194.0 L614.9 192.0 L626.5 189.8 L639.1 187.1 L653.0 184.4 L667.6 183.1 L681.2 184.4 L692.0 189.0 L698.8 196.4 L701.7 205.1 L702.2 213.7 L702.3 221.1 L703.4 227.2 L705.5 232.4 L707.6 237.2 L708.7 242.0 L709.0 246.8 L709.8 251.3 L712.9 255.7 L719.0 260.2 Z" fill="none" stroke="#F6D9B6" stroke-width="1.15" opacity="0.537"/><path d="M765.3 260.2 L768.6 267.4 L773.4 275.2 L780.3 283.9 L787.7 293.8 L792.2 304.3 L790.7 314.4 L781.7 322.5 L766.5 328.1 L748.0 331.2 L729.8 333.3 L713.6 335.4 L699.5 338.4 L686.0 341.6 L672.0 344.0 L657.2 344.5 L642.3 343.0 L628.1 340.6 L614.9 338.7 L602.1 338.2 L588.9 339.0 L574.9 339.9 L561.0 339.2 L548.4 336.3 L537.6 331.6 L527.9 326.5 L517.2 322.3 L503.5 319.7 L486.2 317.9 L466.9 315.5 L448.8 311.4 L435.3 304.9 L427.8 296.6 L425.5 287.3 L426.2 278.0 L428.0 269.0 L430.5 260.2 L435.1 251.9 L443.7 244.1 L456.9 237.7 L473.1 232.7 L488.8 228.9 L500.8 225.1 L507.5 220.1 L510.0 213.3 L511.3 205.0 L514.6 196.5 L521.6 189.2 L532.1 183.7 L544.5 179.8 L557.5 176.2 L570.6 172.0 L584.1 167.2 L598.9 162.7 L614.9 160.1 L631.3 160.3 L647.0 163.2 L661.6 167.4 L675.5 171.4 L689.9 174.5 L705.0 177.0 L720.0 180.2 L732.4 185.5 L740.2 193.4 L742.6 203.1 L741.1 213.1 L738.8 222.1 L738.8 229.4 L742.4 235.5 L748.9 241.1 L755.9 247.0 L761.5 253.4 L765.3 260.2 Z" fill="none" stroke="#F6D9B6" stroke-width="1.50" opacity="0.525"/><path d="M831.5 260.2 L835.4 270.5 L838.8 281.3 L839.2 292.3 L834.3 302.8 L824.1 312.3 L810.9 320.6 L798.1 328.6 L787.4 337.5 L778.5 347.5 L768.5 357.9 L754.6 366.6 L735.3 371.4 L711.8 371.1 L687.3 366.3 L664.7 359.3 L645.5 352.9 L629.5 349.0 L614.9 348.0 L600.4 348.6 L585.4 349.6 L569.6 350.3 L552.9 351.1 L533.9 352.9 L511.3 355.9 L484.9 359.3 L456.3 361.0 L429.8 359.0 L409.8 352.0 L399.2 340.8 L397.5 327.2 L401.1 313.4 L405.6 300.9 L407.6 289.9 L407.0 279.8 L406.0 270.0 L407.6 260.2 L413.1 250.8 L421.4 242.0 L429.8 233.8 L436.0 225.5 L439.9 216.7 L443.8 207.6 L450.8 199.0 L462.7 192.1 L478.7 187.6 L496.1 184.7 L511.4 181.4 L523.3 175.6 L532.7 166.2 L542.3 153.8 L554.9 140.9 L571.9 130.2 L592.5 123.8 L614.9 121.9 L637.4 123.4 L659.0 127.0 L679.4 132.0 L697.9 138.7 L713.1 148.0 L723.3 160.1 L728.0 174.1 L728.8 187.8 L729.6 199.1 L734.6 206.7 L746.4 211.1 L764.6 214.2 L785.3 217.9 L803.9 223.6 L817.1 231.4 L824.4 240.5 L828.3 250.3 L831.5 260.2 Z" fill="none" stroke="#F6D9B6" stroke-width="0.80" opacity="0.512"/><path d="M903.3 260.2 L899.7 273.5 L887.6 285.9 L872.0 297.0 L858.3 307.5 L849.2 318.5 L843.5 330.6 L837.2 343.3 L826.1 354.8 L808.5 363.5 L785.7 368.8 L761.1 371.6 L737.6 373.6 L716.5 376.4 L696.8 380.2 L676.9 383.6 L656.1 384.9 L635.1 383.3 L614.9 379.9 L595.8 377.0 L576.3 377.0 L554.4 380.8 L528.5 386.9 L499.4 392.3 L470.2 394.0 L444.4 390.1 L424.3 381.4 L409.6 369.7 L398.0 357.3 L387.1 345.3 L376.4 333.7 L368.0 321.6 L364.8 308.8 L368.2 295.5 L376.5 282.7 L385.5 271.0 L390.3 260.2 L388.6 249.7 L382.4 238.4 L376.5 226.2 L376.2 213.9 L384.3 202.9 L399.3 193.8 L417.0 186.3 L433.1 178.9 L445.7 170.0 L455.9 159.2 L466.8 147.4 L481.1 136.7 L499.7 128.5 L521.3 123.1 L544.1 119.3 L567.0 115.4 L590.4 110.7 L614.9 106.3 L640.5 104.4 L665.4 107.5 L687.1 116.5 L703.9 129.8 L716.2 144.4 L726.7 157.0 L738.6 166.0 L754.1 171.8 L772.4 176.3 L791.0 181.4 L807.3 188.4 L820.7 196.9 L832.9 206.0 L846.8 215.2 L863.7 224.7 L881.7 235.2 L896.5 247.1 L903.3 260.2 Z" fill="none" stroke="#F6D9B6" stroke-width="1.15" opacity="0.500"/><path d="M933.0 260.2 L916.8 274.3 L906.7 287.7 L901.1 301.1 L895.1 314.6 L884.6 327.3 L868.2 338.3 L848.4 347.4 L828.6 355.9 L811.1 364.9 L795.2 374.9 L778.5 384.8 L758.3 392.7 L734.2 396.6 L708.1 396.8 L682.8 395.3 L659.8 395.9 L638.0 401.3 L614.9 411.9 L587.9 425.1 L556.5 436.8 L523.0 443.2 L490.5 442.5 L461.6 435.6 L436.7 424.9 L415.0 412.5 L396.1 399.3 L381.1 384.9 L372.5 368.7 L372.2 350.9 L379.4 332.8 L389.2 316.4 L394.7 303.0 L390.4 292.3 L375.0 282.8 L352.6 272.5 L330.9 260.2 L317.0 246.3 L313.8 231.9 L319.5 218.0 L329.3 204.8 L338.9 191.6 L346.8 177.7 L355.2 163.3 L367.4 149.5 L385.3 137.8 L408.2 128.9 L433.1 121.8 L457.2 114.6 L479.7 105.6 L502.1 95.0 L526.9 85.2 L555.2 79.7 L585.6 81.4 L614.9 90.7 L640.3 105.2 L661.1 120.6 L678.8 133.0 L696.4 140.8 L716.0 144.6 L737.7 146.8 L760.4 149.4 L783.2 153.3 L806.9 157.9 L833.7 162.3 L865.4 166.7 L900.8 172.2 L934.8 180.7 L960.5 193.2 L972.0 209.2 L967.9 227.0 L952.4 244.5 L933.0 260.2 Z" fill="none" stroke="#F6D9B6" stroke-width="1.50" opacity="0.487"/><path d="M996.9 260.2 L975.7 277.1 L944.3 291.2 L909.1 302.3 L878.6 311.4 L859.6 321.1 L853.5 333.7 L855.6 350.1 L858.0 369.0 L853.7 387.6 L839.7 403.1 L817.5 414.5 L791.0 422.9 L763.6 430.3 L736.3 438.2 L708.3 446.1 L678.4 452.2 L646.7 454.3 L614.9 452.0 L584.3 446.9 L554.7 442.3 L524.3 440.6 L490.8 442.0 L454.4 443.9 L418.1 442.0 L387.5 433.5 L367.4 417.6 L359.0 396.7 L359.0 374.8 L361.5 354.9 L360.7 338.5 L354.7 325.0 L345.1 312.6 L335.1 300.2 L326.5 287.4 L317.9 274.1 L305.7 260.2 L287.1 244.9 L263.6 227.2 L241.4 206.9 L229.1 185.4 L233.2 165.3 L254.9 149.4 L289.4 138.7 L328.5 132.1 L365.0 127.0 L395.4 120.7 L421.0 112.6 L445.4 103.6 L471.5 96.2 L499.9 91.7 L529.4 90.0 L558.3 89.2 L586.5 87.1 L614.9 83.3 L644.5 79.7 L674.7 79.2 L703.2 84.6 L727.3 95.6 L746.5 109.8 L763.7 122.8 L783.9 131.5 L811.7 135.2 L847.7 136.1 L888.5 137.8 L927.7 143.5 L959.3 154.2 L981.1 169.2 L994.6 186.5 L1002.7 204.8 L1007.2 223.4 L1006.5 242.0 L996.9 260.2 Z" fill="none" stroke="#F6D9B6" stroke-width="0.80" opacity="0.474"/><path d="M931.5 260.2 L921.9 274.6 L923.2 289.2 L929.0 305.1 L932.2 321.8 L929.4 338.5 L921.8 354.7 L913.1 371.6 L905.8 390.4 L899.0 411.8 L888.5 434.2 L869.7 454.3 L840.6 468.7 L803.3 475.7 L762.6 476.7 L722.9 475.3 L686.0 475.3 L650.7 478.6 L614.9 483.6 L577.8 486.3 L541.2 483.2 L508.1 472.8 L480.7 456.9 L458.3 439.4 L438.0 423.6 L417.1 410.9 L394.8 400.2 L373.3 389.1 L355.8 376.2 L343.3 361.7 L332.8 347.1 L318.0 334.1 L293.2 322.7 L257.1 311.4 L214.9 297.9 L176.3 280.7 L151.2 260.2 L144.6 238.3 L154.8 217.0 L175.3 197.4 L199.0 179.5 L222.2 162.6 L246.0 146.7 L273.9 132.9 L308.0 122.9 L347.3 117.5 L387.0 115.4 L422.1 113.4 L450.4 108.3 L473.5 98.6 L495.7 85.6 L521.0 73.3 L550.5 65.5 L582.7 64.1 L614.9 67.4 L645.8 71.7 L676.7 73.3 L710.1 70.8 L747.5 65.9 L788.0 62.2 L828.2 63.2 L864.6 70.0 L896.3 81.4 L925.0 94.9 L953.5 108.7 L982.5 123.0 L1008.5 139.0 L1025.2 158.2 L1026.5 180.4 L1010.8 203.7 L983.3 225.6 L953.6 244.4 L931.5 260.2 Z" fill="none" stroke="#F6D9B6" stroke-width="1.15" opacity="0.462"/><path d="M1129.3 260.2 L1150.5 285.2 L1151.8 310.7 L1130.6 333.9 L1091.9 352.8 L1045.1 367.2 L999.2 378.6 L958.2 388.5 L921.6 397.5 L885.9 404.8 L849.2 409.2 L812.7 410.9 L779.6 412.3 L752.5 417.6 L730.7 429.9 L710.1 449.7 L685.4 473.4 L653.5 495.3 L614.9 509.9 L573.1 514.9 L531.7 512.1 L491.8 505.4 L452.2 498.7 L411.1 493.4 L368.7 487.7 L328.3 478.6 L294.4 463.9 L270.4 444.0 L255.1 421.3 L244.1 398.7 L232.5 378.0 L218.5 358.8 L205.6 339.7 L200.7 319.4 L209.2 298.4 L231.3 278.1 L259.9 260.2 L284.4 244.8 L295.6 230.2 L290.9 213.9 L275.0 194.3 L257.2 171.3 L246.2 146.7 L246.1 122.5 L255.6 99.4 L271.2 76.9 L290.4 54.0 L314.0 31.1 L344.9 10.8 L385.1 -2.6 L433.3 -5.8 L485.1 1.8 L534.4 16.8 L577.7 33.4 L614.9 46.2 L648.9 53.0 L682.6 55.4 L716.8 57.5 L749.5 63.0 L778.5 73.1 L803.4 86.1 L826.9 98.8 L853.3 108.7 L885.1 116.1 L921.1 123.2 L956.3 132.8 L985.4 146.2 L1006.5 162.9 L1022.6 181.1 L1040.5 199.4 L1065.4 217.9 L1097.4 237.7 L1129.3 260.2 Z" fill="none" stroke="#F6D9B6" stroke-width="1.50" opacity="0.449"/><path d="M1099.0 260.2 L1120.9 283.9 L1137.4 309.4 L1141.2 335.4 L1127.6 359.8 L1098.5 380.5 L1061.5 397.7 L1026.1 413.8 L998.4 431.9 L977.6 453.7 L957.2 477.8 L929.5 499.8 L890.3 514.6 L841.0 518.8 L787.5 513.1 L736.1 501.4 L690.5 488.8 L650.7 478.4 L614.9 470.8 L581.5 464.1 L550.0 456.6 L520.1 448.9 L489.7 443.8 L453.9 444.4 L407.5 451.8 L348.0 463.6 L278.8 473.9 L209.5 476.5 L151.4 467.7 L113.0 447.7 L95.5 420.2 L93.6 389.9 L98.8 360.4 L105.1 333.1 L111.8 307.6 L122.4 283.2 L140.5 260.2 L166.0 239.3 L193.4 220.6 L215.3 203.1 L226.9 184.9 L229.8 164.5 L231.4 142.1 L241.0 120.6 L264.1 103.3 L299.8 92.2 L341.0 86.2 L379.7 81.1 L411.0 71.9 L435.9 55.5 L459.7 32.8 L488.0 7.7 L524.0 -14.7 L567.2 -30.8 L614.9 -40.4 L665.0 -45.2 L716.4 -46.8 L768.2 -44.9 L817.5 -36.6 L859.0 -18.9 L886.8 9.1 L897.7 44.8 L894.9 82.3 L887.2 115.0 L885.7 139.1 L898.1 154.5 L925.6 164.6 L962.3 173.9 L999.4 185.6 L1030.9 200.8 L1055.7 218.8 L1077.2 238.7 L1099.0 260.2 Z" fill="none" stroke="#F6D9B6" stroke-width="0.80" opacity="0.437"/><path d="M1191.0 260.2 L1199.1 287.5 L1197.9 315.1 L1192.4 342.8 L1183.1 370.5 L1165.8 397.2 L1134.4 420.2 L1086.6 436.4 L1026.5 444.4 L963.6 446.2 L908.2 446.7 L865.7 451.3 L834.7 463.3 L808.5 481.7 L779.8 501.9 L744.5 518.2 L703.3 527.5 L659.2 530.3 L614.9 530.1 L570.6 530.6 L524.7 533.0 L476.8 535.1 L428.7 533.1 L384.0 524.3 L345.5 509.1 L312.0 491.0 L278.5 474.1 L238.8 460.8 L190.7 450.1 L138.7 438.1 L92.8 421.0 L64.1 397.2 L58.5 368.3 L73.3 337.6 L99.1 308.8 L124.6 283.1 L143.4 260.2 L155.5 238.8 L166.2 218.1 L180.5 198.2 L198.7 179.5 L216.3 161.1 L227.1 140.8 L228.4 115.9 L224.0 85.3 L222.9 51.2 L234.8 18.7 L264.9 -6.4 L310.9 -20.6 L365.8 -24.7 L421.5 -23.2 L473.4 -21.4 L521.4 -22.7 L567.9 -26.3 L614.9 -28.6 L661.9 -26.0 L706.6 -17.2 L747.9 -4.6 L787.0 8.1 L826.7 18.0 L869.3 25.3 L912.9 33.3 L951.8 46.1 L979.6 65.8 L993.2 90.9 L996.8 117.6 L1000.0 141.7 L1013.5 161.1 L1042.9 177.2 L1085.2 193.0 L1130.7 211.7 L1168.3 234.4 L1191.0 260.2 Z" fill="none" stroke="#F6D9B6" stroke-width="1.15" opacity="0.424"/><path d="M1222.8 260.2 L1245.8 289.7 L1262.5 321.1 L1264.0 353.0 L1244.1 382.4 L1203.7 406.7 L1151.5 425.5 L1099.4 441.2 L1055.8 457.6 L1021.8 477.3 L991.4 499.6 L956.4 520.4 L911.7 534.4 L858.1 538.4 L801.3 533.4 L747.4 524.0 L699.5 516.0 L656.4 513.0 L614.9 514.5 L572.8 517.1 L529.9 517.3 L487.3 514.3 L444.2 510.4 L397.1 509.4 L340.8 513.4 L273.0 520.7 L197.1 525.8 L123.1 522.5 L63.7 506.9 L27.6 479.6 L16.0 444.7 L21.7 407.8 L34.2 373.0 L45.8 341.6 L55.2 312.9 L66.9 285.8 L86.1 260.2 L113.4 236.8 L143.1 215.9 L166.1 196.1 L175.9 175.0 L173.5 150.5 L167.1 122.4 L168.3 93.5 L185.1 67.9 L218.0 48.6 L260.8 35.2 L304.5 23.8 L343.3 9.4 L377.7 -11.0 L412.5 -36.3 L453.2 -61.6 L502.1 -81.0 L557.3 -90.9 L614.9 -91.7 L671.8 -86.8 L727.3 -79.7 L781.5 -71.3 L833.0 -59.3 L877.5 -40.1 L909.2 -11.6 L925.0 24.1 L927.7 61.4 L926.9 93.8 L934.4 117.3 L958.8 131.8 L1000.4 141.5 L1051.9 151.6 L1102.4 165.6 L1143.7 184.7 L1174.6 207.6 L1199.3 233.0 L1222.8 260.2 Z" fill="none" stroke="#F6D9B6" stroke-width="1.50" opacity="0.411"/><path d="M1198.2 260.2 L1150.5 285.2 L1108.5 306.7 L1084.8 327.4 L1083.9 351.3 L1099.1 380.7 L1116.2 414.6 L1120.4 449.0 L1103.9 479.1 L1068.1 502.0 L1021.2 518.5 L971.9 532.1 L924.7 546.4 L879.0 562.3 L831.4 577.5 L779.6 588.1 L724.6 592.1 L669.2 591.0 L614.9 589.1 L560.6 591.1 L503.2 598.1 L441.0 606.4 L376.9 609.0 L318.5 599.3 L274.1 575.1 L248.0 539.7 L237.1 500.4 L232.2 464.4 L222.8 435.7 L203.1 414.0 L174.3 395.9 L142.0 377.8 L111.7 357.9 L83.7 336.2 L53.7 313.0 L16.5 288.2 L-27.6 260.2 L-70.6 228.3 L-98.7 193.1 L-99.2 158.2 L-68.0 127.7 L-11.9 104.4 L54.6 87.7 L116.3 74.0 L164.9 58.9 L201.4 39.7 L233.3 17.7 L268.8 -3.4 L311.8 -19.7 L361.0 -30.2 L412.1 -36.9 L462.4 -43.4 L511.8 -51.7 L562.3 -60.3 L614.9 -64.6 L667.5 -60.1 L716.1 -45.7 L758.2 -25.0 L796.1 -5.3 L836.5 6.8 L887.0 8.9 L951.1 4.2 L1025.1 -0.5 L1099.0 2.1 L1161.8 15.5 L1207.3 39.0 L1235.9 69.0 L1253.0 101.6 L1263.6 134.3 L1267.7 167.0 L1260.9 199.5 L1237.7 231.2 L1198.2 260.2 Z" fill="none" stroke="#F6D9B6" stroke-width="0.80" opacity="0.399"/><path d="M1305.0 260.2 L1354.6 294.8 L1389.4 333.1 L1397.6 372.1 L1377.1 408.2 L1335.0 439.3 L1281.6 465.5 L1224.5 487.9 L1164.9 506.4 L1100.0 518.9 L1028.0 522.8 L951.9 516.9 L879.2 504.4 L818.0 492.6 L771.7 489.9 L736.4 502.0 L703.4 528.1 L664.3 561.4 L614.9 592.5 L556.9 613.9 L494.9 623.2 L432.5 623.2 L370.3 618.7 L306.5 613.0 L241.2 605.5 L178.1 593.0 L124.0 572.2 L84.7 543.0 L60.0 508.6 L43.4 473.7 L25.0 441.9 L-1.5 413.6 L-34.0 386.2 L-61.7 356.9 L-70.7 324.7 L-52.7 291.4 L-9.9 260.2 L44.7 233.6 L94.5 211.3 L127.5 190.6 L141.5 168.4 L143.3 142.9 L142.9 114.9 L147.4 85.7 L157.6 55.6 L170.2 23.1 L182.8 -14.4 L197.7 -57.6 L221.8 -102.9 L262.3 -143.0 L321.9 -169.0 L396.0 -175.4 L475.1 -162.6 L549.7 -137.2 L614.9 -108.8 L671.5 -84.7 L723.2 -67.4 L772.9 -54.2 L820.0 -40.2 L862.2 -22.6 L898.6 -1.8 L932.3 18.5 L969.2 35.0 L1014.4 47.2 L1067.3 57.8 L1120.5 71.4 L1163.8 91.2 L1190.2 117.2 L1201.6 146.4 L1208.4 175.4 L1224.2 202.9 L1257.2 230.3 L1305.0 260.2 Z" fill="none" stroke="#F6D9B6" stroke-width="1.15" opacity="0.386"/><path d="M1312.1 260.2 L1315.6 292.9 L1322.4 326.8 L1339.1 363.7 L1362.9 405.4 L1381.2 450.8 L1377.7 495.1 L1341.0 531.4 L1271.0 553.8 L1178.8 561.0 L1081.2 556.6 L992.5 547.9 L918.9 541.1 L858.8 539.2 L806.5 541.0 L757.4 543.9 L709.7 546.8 L662.8 551.9 L614.9 563.4 L561.8 583.8 L498.9 611.1 L425.1 638.1 L345.3 655.3 L269.4 655.4 L206.6 637.4 L160.4 606.4 L126.0 571.0 L93.7 538.2 L55.1 510.8 L8.7 486.6 L-38.8 461.5 L-77.1 432.4 L-99.0 398.8 L-104.7 363.1 L-101.1 327.6 L-96.0 293.4 L-91.9 260.2 L-83.1 227.7 L-60.3 196.8 L-17.1 169.9 L43.5 149.3 L108.7 134.4 L161.8 120.7 L190.9 101.9 L195.4 72.5 L186.0 31.5 L178.8 -17.0 L187.2 -65.5 L216.9 -107.4 L265.4 -139.5 L326.3 -162.6 L394.0 -179.4 L465.9 -190.6 L540.4 -194.0 L614.9 -185.4 L684.2 -162.2 L742.7 -126.3 L788.4 -85.2 L825.5 -48.4 L862.7 -23.2 L908.6 -11.1 L965.7 -6.9 L1028.5 -2.6 L1086.5 8.7 L1130.6 29.5 L1158.8 57.1 L1177.1 87.1 L1195.3 115.9 L1220.4 142.7 L1251.5 169.3 L1281.6 197.6 L1302.6 228.2 L1312.1 260.2 Z" fill="none" stroke="#F6D9B6" stroke-width="1.50" opacity="0.374"/><path d="M1230.0 260.2 L1266.8 290.7 L1314.9 326.1 L1358.1 366.5 L1379.5 408.7 L1370.0 448.0 L1333.1 481.4 L1281.2 509.1 L1228.1 534.7 L1181.3 562.3 L1138.8 593.3 L1093.1 624.5 L1036.9 650.1 L968.7 664.8 L893.1 667.9 L817.2 662.9 L745.7 655.9 L679.1 651.3 L614.9 648.4 L552.2 642.6 L493.2 628.4 L442.2 604.1 L401.2 573.4 L366.5 544.3 L328.7 524.6 L277.3 517.4 L207.2 519.4 L122.4 522.9 L34.2 520.1 L-44.8 506.6 L-107.6 482.7 L-155.8 451.9 L-195.6 417.6 L-231.6 381.2 L-261.4 342.7 L-275.4 301.8 L-263.1 260.2 L-220.6 221.3 L-155.5 187.8 L-84.1 160.4 L-23.6 136.3 L16.8 111.5 L40.0 83.2 L58.1 52.3 L84.3 22.8 L125.5 -0.8 L179.1 -16.8 L236.7 -27.8 L290.3 -39.6 L337.7 -56.9 L382.4 -80.4 L430.7 -106.3 L486.5 -128.3 L548.9 -142.0 L614.9 -147.9 L682.3 -150.7 L752.5 -155.8 L828.6 -165.1 L911.9 -174.9 L997.6 -177.4 L1075.3 -165.0 L1133.7 -134.9 L1166.9 -90.6 L1178.1 -40.1 L1178.0 8.3 L1178.3 49.8 L1185.4 84.6 L1197.4 115.4 L1207.5 145.2 L1210.6 175.1 L1209.0 204.4 L1212.0 232.4 L1230.0 260.2 Z" fill="none" stroke="#F6D9B6" stroke-width="0.80" opacity="0.361"/><path d="M1415.2 260.2 L1338.1 294.0 L1279.2 322.7 L1249.3 350.9 L1244.2 382.4 L1248.9 417.9 L1247.3 455.0 L1230.2 490.0 L1198.3 521.3 L1158.3 550.1 L1116.2 578.9 L1072.8 609.0 L1023.9 638.0 L964.9 660.5 L895.6 671.5 L820.9 670.2 L747.7 661.9 L679.8 655.6 L614.9 659.6 L546.7 676.0 L469.8 699.3 L384.6 718.7 L298.5 723.9 L221.8 709.9 L161.5 679.1 L118.2 638.6 L86.5 596.1 L60.6 555.9 L38.3 518.3 L22.7 481.4 L17.7 444.1 L22.1 407.7 L26.4 374.5 L15.7 345.9 L-21.9 320.1 L-87.3 293.0 L-167.0 260.2 L-238.1 220.4 L-278.9 176.2 L-278.9 132.5 L-242.6 93.8 L-185.0 61.3 L-122.9 33.1 L-65.8 6.0 L-13.7 -21.1 L39.5 -46.6 L99.2 -67.5 L165.3 -82.2 L232.8 -92.8 L296.2 -104.2 L354.4 -121.4 L411.4 -144.9 L472.9 -169.1 L541.9 -185.0 L614.9 -184.2 L684.6 -164.6 L744.5 -131.7 L794.1 -96.4 L839.7 -69.1 L890.4 -54.9 L952.6 -51.7 L1025.7 -52.6 L1103.6 -50.3 L1179.4 -40.8 L1250.3 -24.1 L1318.8 -2.6 L1387.9 22.2 L1456.1 51.1 L1513.2 85.9 L1544.0 127.5 L1536.3 173.6 L1488.9 219.5 L1415.2 260.2 Z" fill="none" stroke="#F6D9B6" stroke-width="1.15" opacity="0.348"/><path d="M1604.5 260.2 L1594.7 306.0 L1576.8 350.7 L1550.2 393.9 L1507.4 433.5 L1441.2 465.7 L1352.1 487.3 L1251.3 497.9 L1156.3 502.5 L1081.8 509.3 L1032.6 525.7 L1001.4 554.7 L974.1 592.1 L937.9 629.7 L887.3 659.5 L824.9 678.2 L756.6 688.8 L686.6 697.2 L614.9 707.9 L539.4 720.7 L459.5 730.4 L378.7 730.4 L302.8 717.6 L235.1 694.6 L173.6 667.9 L111.1 644.0 L40.8 625.1 L-36.9 607.9 L-112.3 585.7 L-169.2 553.1 L-194.2 509.4 L-184.3 459.0 L-149.9 408.7 L-109.3 363.7 L-79.1 325.5 L-66.4 292.0 L-66.8 260.2 L-70.2 228.3 L-69.1 195.9 L-64.1 163.2 L-63.1 128.6 L-73.5 89.0 L-95.3 41.6 L-117.7 -13.3 L-124.0 -70.4 L-100.0 -121.0 L-41.7 -157.1 L42.8 -175.5 L138.5 -179.9 L231.6 -178.2 L315.7 -178.1 L392.4 -182.7 L466.4 -189.0 L540.9 -190.8 L614.9 -183.4 L685.0 -167.2 L749.7 -147.5 L811.3 -130.6 L874.4 -120.0 L941.5 -113.2 L1009.3 -104.1 L1069.7 -86.2 L1115.1 -57.7 L1144.8 -22.4 L1168.0 12.7 L1199.8 41.8 L1253.2 63.7 L1330.4 82.3 L1420.6 103.9 L1505.1 133.0 L1566.8 170.7 L1598.6 214.3 L1604.5 260.2 Z" fill="none" stroke="#F6D9B6" stroke-width="1.50" opacity="0.336"/><path d="M1487.5 260.2 L1450.7 299.2 L1435.6 337.4 L1433.2 377.2 L1425.7 417.6 L1396.9 454.7 L1342.0 484.1 L1269.1 504.6 L1193.7 519.3 L1129.1 534.5 L1079.4 555.5 L1039.3 583.5 L999.1 615.2 L951.7 645.4 L895.6 671.5 L833.6 695.5 L767.8 722.6 L696.3 756.6 L614.9 796.1 L521.0 832.6 L418.6 853.9 L318.5 850.1 L233.6 819.0 L171.7 767.1 L132.0 706.3 L105.6 648.2 L82.1 598.9 L56.2 558.2 L29.8 522.1 L8.3 486.8 L-5.9 451.4 L-18.1 417.7 L-39.8 387.3 L-81.2 359.7 L-143.1 331.5 L-213.7 298.9 L-272.9 260.2 L-303.0 217.4 L-298.1 174.4 L-267.2 134.2 L-228.6 96.5 L-198.5 57.9 L-182.5 14.7 L-172.9 -34.0 L-154.8 -84.2 L-115.7 -129.4 L-52.2 -163.7 L29.6 -185.6 L118.9 -197.9 L207.7 -205.5 L293.5 -210.7 L378.0 -211.4 L462.1 -202.1 L542.9 -178.7 L614.9 -142.7 L674.4 -102.7 L724.3 -70.7 L774.2 -56.7 L835.7 -63.2 L915.7 -83.8 L1012.2 -106.7 L1115.3 -120.9 L1213.7 -120.3 L1301.0 -105.7 L1378.3 -81.4 L1450.3 -51.7 L1518.6 -18.0 L1577.3 20.9 L1614.5 66.2 L1619.3 116.7 L1590.6 168.5 L1540.0 217.1 L1487.5 260.2 Z" fill="none" stroke="#F6D9B6" stroke-width="0.80" opacity="0.323"/><path d="M1732.1 260.2 L1737.4 312.6 L1693.9 361.7 L1618.5 403.7 L1535.5 438.9 L1463.3 471.2 L1407.5 504.3 L1361.1 538.9 L1312.1 572.3 L1253.1 600.6 L1184.8 622.4 L1114.0 640.4 L1047.2 659.5 L985.0 683.5 L922.4 710.9 L853.2 734.6 L775.4 745.8 L693.5 739.5 L614.9 718.5 L544.0 692.6 L478.0 674.2 L408.4 671.3 L326.3 683.1 L229.3 701.3 L123.5 714.2 L20.2 713.2 L-70.8 696.1 L-146.5 666.3 L-210.0 629.4 L-265.4 589.0 L-310.9 545.3 L-337.8 497.2 L-334.8 444.6 L-297.3 390.6 L-233.9 340.1 L-165.7 296.7 L-117.4 260.2 L-105.0 226.7 L-127.5 190.4 L-168.0 148.4 L-202.5 101.6 L-212.9 54.4 L-194.2 11.1 L-154.0 -26.9 L-104.7 -61.8 L-54.7 -96.9 L-4.1 -133.2 L53.2 -167.6 L122.4 -194.7 L203.4 -210.4 L289.9 -216.0 L374.5 -218.2 L454.3 -225.6 L532.3 -243.1 L614.9 -267.9 L705.2 -290.0 L799.2 -297.2 L887.1 -281.5 L958.9 -243.8 L1010.9 -192.7 L1048.2 -140.0 L1081.0 -94.8 L1118.0 -59.5 L1161.3 -31.2 L1206.8 -4.6 L1249.6 23.2 L1290.8 52.1 L1338.4 80.3 L1403.2 107.2 L1489.2 135.3 L1587.5 168.8 L1676.7 210.7 L1732.1 260.2 Z" fill="none" stroke="#F6D9B6" stroke-width="1.15" opacity="0.311"/><path d="M1498.7 260.2 L1514.2 302.2 L1540.7 347.3 L1568.2 396.5 L1579.8 447.5 L1561.8 495.7 L1512.6 536.6 L1443.5 569.7 L1371.9 599.0 L1310.6 631.3 L1261.1 670.9 L1213.8 716.4 L1155.9 760.0 L1079.5 791.6 L986.5 804.8 L886.1 800.0 L788.2 784.3 L698.0 767.0 L614.9 753.4 L535.8 742.7 L459.8 729.5 L389.6 708.7 L328.4 680.0 L274.7 649.4 L219.7 625.3 L151.1 613.5 L60.3 612.8 L-50.5 615.1 L-167.1 610.2 L-269.6 590.6 L-343.0 555.2 L-384.3 508.7 L-403.3 457.9 L-414.5 407.4 L-427.3 358.3 L-439.5 309.4 L-439.9 260.2 L-417.0 212.1 L-368.4 167.8 L-304.3 128.9 L-241.9 93.9 L-195.2 58.8 L-166.3 19.7 L-144.5 -23.4 L-113.2 -65.6 L-60.2 -99.8 L14.9 -121.1 L101.9 -130.5 L186.6 -135.4 L260.2 -145.4 L323.5 -166.8 L384.3 -198.7 L451.5 -233.9 L529.1 -263.0 L614.9 -280.5 L704.7 -287.3 L796.4 -288.7 L891.4 -290.0 L991.5 -291.6 L1094.0 -287.7 L1189.0 -270.1 L1263.0 -233.4 L1306.4 -179.3 L1320.3 -116.0 L1318.0 -54.4 L1318.4 -2.5 L1335.9 38.2 L1372.7 71.8 L1418.4 104.3 L1458.0 139.8 L1481.8 178.7 L1491.7 219.3 L1498.7 260.2 Z" fill="none" stroke="#F6D9B6" stroke-width="1.50" opacity="0.298"/><path d="M1796.4 260.2 L1767.0 314.0 L1711.7 363.4 L1648.3 407.9 L1588.1 449.2 L1530.8 488.0 L1467.6 522.8 L1390.1 549.7 L1298.7 566.3 L1204.2 574.5 L1121.7 582.3 L1060.9 600.0 L1020.1 634.5 L986.8 685.5 L945.1 744.1 L884.7 797.3 L804.9 834.9 L712.3 853.9 L614.9 859.0 L516.8 858.2 L417.7 856.6 L317.0 853.1 L218.1 841.7 L128.8 816.2 L57.3 775.3 L5.4 724.5 L-34.4 672.9 L-75.0 628.2 L-127.2 592.3 L-190.6 561.1 L-253.0 527.5 L-296.4 486.9 L-308.1 439.4 L-289.8 389.5 L-257.5 342.3 L-233.0 299.8 L-231.3 260.2 L-253.0 219.7 L-285.2 175.6 L-310.3 128.0 L-317.3 79.3 L-306.9 31.0 L-288.4 -17.9 L-270.9 -70.5 L-254.6 -128.9 L-229.6 -190.1 L-181.7 -246.1 L-102.1 -285.9 L6.2 -302.0 L129.8 -294.6 L251.6 -272.1 L359.9 -247.3 L452.8 -230.1 L535.6 -223.5 L614.9 -222.4 L693.5 -219.1 L769.8 -208.4 L841.9 -191.5 L911.6 -174.5 L985.8 -163.9 L1071.2 -161.2 L1168.4 -161.3 L1269.0 -155.5 L1358.8 -136.5 L1426.1 -102.8 L1470.4 -59.2 L1503.0 -13.2 L1541.4 29.8 L1597.4 69.5 L1668.8 109.6 L1739.4 154.5 L1787.0 205.6 L1796.4 260.2 Z" fill="none" stroke="#F6D9B6" stroke-width="0.80" opacity="0.285"/><path d="M1484.2 260.2 L1488.4 301.0 L1527.7 346.1 L1597.5 400.7 L1675.4 466.1 L1731.2 537.9 L1741.1 607.0 L1698.2 664.8 L1612.7 706.8 L1504.5 734.7 L1391.3 753.7 L1281.4 767.9 L1174.7 777.4 L1068.0 778.5 L961.6 768.3 L860.3 748.6 L769.4 727.5 L689.7 716.1 L614.9 722.0 L535.5 744.3 L445.4 773.1 L346.8 793.9 L249.6 795.5 L164.5 775.4 L95.1 740.4 L35.5 701.6 L-26.9 668.2 L-101.8 642.5 L-189.7 620.3 L-280.9 594.8 L-362.3 561.1 L-426.0 519.1 L-474.7 471.8 L-517.8 422.1 L-562.9 371.0 L-606.5 317.2 L-632.6 260.2 L-620.3 202.6 L-556.9 150.0 L-447.2 108.5 L-313.8 80.0 L-187.3 60.7 L-92.1 42.5 L-35.8 17.2 L-8.8 -18.9 L7.7 -63.6 L30.6 -111.1 L67.3 -156.9 L116.3 -200.3 L173.4 -244.7 L237.6 -292.6 L312.4 -341.9 L401.8 -384.3 L505.2 -408.6 L614.9 -407.0 L720.0 -380.4 L812.9 -338.8 L894.7 -296.6 L973.6 -265.4 L1059.1 -247.7 L1153.5 -237.3 L1249.6 -223.2 L1333.8 -196.7 L1395.0 -155.8 L1431.9 -105.4 L1453.1 -52.8 L1470.9 -3.3 L1492.4 42.0 L1514.4 85.6 L1526.8 129.9 L1521.7 175.0 L1502.2 218.8 L1484.2 260.2 Z" fill="none" stroke="#F6D9B6" stroke-width="1.15" opacity="0.273"/><path d="M1840.7 260.2 L1850.7 317.9 L1824.2 374.0 L1754.3 423.1 L1651.8 461.5 L1539.3 490.1 L1438.3 513.8 L1358.7 538.0 L1296.9 565.5 L1241.3 594.3 L1182.5 621.0 L1119.2 644.4 L1056.8 668.5 L1000.9 701.7 L950.0 751.3 L894.9 817.6 L823.5 891.1 L729.0 955.9 L614.9 996.3 L492.8 1004.6 L375.7 983.8 L270.9 945.0 L178.0 900.5 L92.8 857.4 L14.0 815.4 L-53.9 769.7 L-103.0 716.5 L-129.5 657.2 L-139.4 597.8 L-148.1 545.2 L-172.4 502.7 L-219.9 467.9 L-283.0 434.5 L-342.5 397.1 L-378.4 353.7 L-382.8 306.8 L-365.2 260.2 L-346.8 215.4 L-348.2 169.7 L-376.4 118.6 L-421.0 59.2 L-459.9 -7.1 L-472.1 -74.5 L-448.2 -136.8 L-392.9 -190.8 L-318.5 -237.6 L-235.4 -280.2 L-146.1 -319.4 L-46.1 -350.4 L68.7 -364.5 L195.6 -354.2 L324.0 -318.8 L440.4 -267.5 L536.8 -216.1 L614.9 -180.2 L685.1 -167.4 L758.8 -174.8 L841.8 -191.4 L932.4 -205.0 L1025.1 -208.9 L1116.9 -203.5 L1211.4 -194.1 L1314.9 -184.7 L1430.3 -174.7 L1550.5 -158.4 L1658.9 -129.6 L1738.0 -85.6 L1779.4 -29.4 L1789.8 32.2 L1788.2 92.6 L1794.0 149.4 L1814.7 204.3 L1840.7 260.2 Z" fill="none" stroke="#F6D9B6" stroke-width="1.50" opacity="0.260"/><rect x="-40" y="283" width="164" height="637" fill="#D98A3C" fill-opacity="0.234" stroke="#F6D9B6" stroke-width="1.59" opacity="0.819"/><line x1="-32" y1="329" x2="116" y2="329" stroke="#F6D9B6" fill="none" stroke-linecap="round" stroke-width="0.87" opacity="0.390"/><line x1="-32" y1="375" x2="116" y2="375" stroke="#F6D9B6" fill="none" stroke-linecap="round" stroke-width="0.87" opacity="0.390"/><line x1="-32" y1="421" x2="116" y2="421" stroke="#F6D9B6" fill="none" stroke-linecap="round" stroke-width="0.87" opacity="0.390"/><line x1="-32" y1="467" x2="116" y2="467" stroke="#F6D9B6" fill="none" stroke-linecap="round" stroke-width="0.87" opacity="0.390"/><line x1="-32" y1="513" x2="116" y2="513" stroke="#F6D9B6" fill="none" stroke-linecap="round" stroke-width="0.87" opacity="0.390"/><line x1="-32" y1="559" x2="116" y2="559" stroke="#F6D9B6" fill="none" stroke-linecap="round" stroke-width="0.87" opacity="0.390"/><line x1="-32" y1="605" x2="116" y2="605" stroke="#F6D9B6" fill="none" stroke-linecap="round" stroke-width="0.87" opacity="0.390"/><line x1="-32" y1="651" x2="116" y2="651" stroke="#F6D9B6" fill="none" stroke-linecap="round" stroke-width="0.87" opacity="0.390"/><line x1="-32" y1="697" x2="116" y2="697" stroke="#F6D9B6" fill="none" stroke-linecap="round" stroke-width="0.87" opacity="0.390"/><line x1="-32" y1="743" x2="116" y2="743" stroke="#F6D9B6" fill="none" stroke-linecap="round" stroke-width="0.87" opacity="0.390"/><line x1="-32" y1="789" x2="116" y2="789" stroke="#F6D9B6" fill="none" stroke-linecap="round" stroke-width="0.87" opacity="0.390"/><line x1="-32" y1="835" x2="116" y2="835" stroke="#F6D9B6" fill="none" stroke-linecap="round" stroke-width="0.87" opacity="0.390"/><rect x="149" y="511" width="121" height="409" fill="#D98A3C" fill-opacity="0.234" stroke="#F6D9B6" stroke-width="1.59" opacity="0.819"/><line x1="157" y1="557" x2="262" y2="557" stroke="#F6D9B6" fill="none" stroke-linecap="round" stroke-width="0.87" opacity="0.390"/><line x1="157" y1="603" x2="262" y2="603" stroke="#F6D9B6" fill="none" stroke-linecap="round" stroke-width="0.87" opacity="0.390"/><line x1="157" y1="649" x2="262" y2="649" stroke="#F6D9B6" fill="none" stroke-linecap="round" stroke-width="0.87" opacity="0.390"/><line x1="157" y1="695" x2="262" y2="695" stroke="#F6D9B6" fill="none" stroke-linecap="round" stroke-width="0.87" opacity="0.390"/><line x1="157" y1="741" x2="262" y2="741" stroke="#F6D9B6" fill="none" stroke-linecap="round" stroke-width="0.87" opacity="0.390"/><line x1="157" y1="787" x2="262" y2="787" stroke="#F6D9B6" fill="none" stroke-linecap="round" stroke-width="0.87" opacity="0.390"/><line x1="157" y1="833" x2="262" y2="833" stroke="#F6D9B6" fill="none" stroke-linecap="round" stroke-width="0.87" opacity="0.390"/><rect x="301" y="482" width="138" height="438" fill="#D98A3C" fill-opacity="0.234" stroke="#F6D9B6" stroke-width="1.59" opacity="0.819"/><line x1="309" y1="528" x2="431" y2="528" stroke="#F6D9B6" fill="none" stroke-linecap="round" stroke-width="0.87" opacity="0.390"/><line x1="309" y1="574" x2="431" y2="574" stroke="#F6D9B6" fill="none" stroke-linecap="round" stroke-width="0.87" opacity="0.390"/><line x1="309" y1="620" x2="431" y2="620" stroke="#F6D9B6" fill="none" stroke-linecap="round" stroke-width="0.87" opacity="0.390"/><line x1="309" y1="666" x2="431" y2="666" stroke="#F6D9B6" fill="none" stroke-linecap="round" stroke-width="0.87" opacity="0.390"/><line x1="309" y1="712" x2="431" y2="712" stroke="#F6D9B6" fill="none" stroke-linecap="round" stroke-width="0.87" opacity="0.390"/><line x1="309" y1="758" x2="431" y2="758" stroke="#F6D9B6" fill="none" stroke-linecap="round" stroke-width="0.87" opacity="0.390"/><line x1="309" y1="804" x2="431" y2="804" stroke="#F6D9B6" fill="none" stroke-linecap="round" stroke-width="0.87" opacity="0.390"/><line x1="309" y1="850" x2="431" y2="850" stroke="#F6D9B6" fill="none" stroke-linecap="round" stroke-width="0.87" opacity="0.390"/><rect x="470" y="322" width="96" height="598" fill="#D98A3C" fill-opacity="0.234" stroke="#F6D9B6" stroke-width="1.59" opacity="0.819"/><line x1="478" y1="368" x2="558" y2="368" stroke="#F6D9B6" fill="none" stroke-linecap="round" stroke-width="0.87" opacity="0.390"/><line x1="478" y1="414" x2="558" y2="414" stroke="#F6D9B6" fill="none" stroke-linecap="round" stroke-width="0.87" opacity="0.390"/><line x1="478" y1="460" x2="558" y2="460" stroke="#F6D9B6" fill="none" stroke-linecap="round" stroke-width="0.87" opacity="0.390"/><line x1="478" y1="506" x2="558" y2="506" stroke="#F6D9B6" fill="none" stroke-linecap="round" stroke-width="0.87" opacity="0.390"/><line x1="478" y1="552" x2="558" y2="552" stroke="#F6D9B6" fill="none" stroke-linecap="round" stroke-width="0.87" opacity="0.390"/><line x1="478" y1="598" x2="558" y2="598" stroke="#F6D9B6" fill="none" stroke-linecap="round" stroke-width="0.87" opacity="0.390"/><line x1="478" y1="644" x2="558" y2="644" stroke="#F6D9B6" fill="none" stroke-linecap="round" stroke-width="0.87" opacity="0.390"/><line x1="478" y1="690" x2="558" y2="690" stroke="#F6D9B6" fill="none" stroke-linecap="round" stroke-width="0.87" opacity="0.390"/><line x1="478" y1="736" x2="558" y2="736" stroke="#F6D9B6" fill="none" stroke-linecap="round" stroke-width="0.87" opacity="0.390"/><line x1="478" y1="782" x2="558" y2="782" stroke="#F6D9B6" fill="none" stroke-linecap="round" stroke-width="0.87" opacity="0.390"/><line x1="478" y1="828" x2="558" y2="828" stroke="#F6D9B6" fill="none" stroke-linecap="round" stroke-width="0.87" opacity="0.390"/><rect x="583" y="673" width="171" height="247" fill="#D98A3C" fill-opacity="0.234" stroke="#F6D9B6" stroke-width="1.59" opacity="0.819"/><line x1="591" y1="719" x2="746" y2="719" stroke="#F6D9B6" fill="none" stroke-linecap="round" stroke-width="0.87" opacity="0.390"/><line x1="591" y1="765" x2="746" y2="765" stroke="#F6D9B6" fill="none" stroke-linecap="round" stroke-width="0.87" opacity="0.390"/><line x1="591" y1="811" x2="746" y2="811" stroke="#F6D9B6" fill="none" stroke-linecap="round" stroke-width="0.87" opacity="0.390"/><line x1="591" y1="857" x2="746" y2="857" stroke="#F6D9B6" fill="none" stroke-linecap="round" stroke-width="0.87" opacity="0.390"/><rect x="793" y="637" width="115" height="283" fill="#D98A3C" fill-opacity="0.234" stroke="#F6D9B6" stroke-width="1.59" opacity="0.819"/><line x1="801" y1="683" x2="900" y2="683" stroke="#F6D9B6" fill="none" stroke-linecap="round" stroke-width="0.87" opacity="0.390"/><line x1="801" y1="729" x2="900" y2="729" stroke="#F6D9B6" fill="none" stroke-linecap="round" stroke-width="0.87" opacity="0.390"/><line x1="801" y1="775" x2="900" y2="775" stroke="#F6D9B6" fill="none" stroke-linecap="round" stroke-width="0.87" opacity="0.390"/><line x1="801" y1="821" x2="900" y2="821" stroke="#F6D9B6" fill="none" stroke-linecap="round" stroke-width="0.87" opacity="0.390"/><line x1="801" y1="867" x2="900" y2="867" stroke="#F6D9B6" fill="none" stroke-linecap="round" stroke-width="0.87" opacity="0.390"/><rect x="944" y="422" width="79" height="498" fill="#D98A3C" fill-opacity="0.234" stroke="#F6D9B6" stroke-width="1.59" opacity="0.819"/><line x1="952" y1="468" x2="1016" y2="468" stroke="#F6D9B6" fill="none" stroke-linecap="round" stroke-width="0.87" opacity="0.390"/><line x1="952" y1="514" x2="1016" y2="514" stroke="#F6D9B6" fill="none" stroke-linecap="round" stroke-width="0.87" opacity="0.390"/><line x1="952" y1="560" x2="1016" y2="560" stroke="#F6D9B6" fill="none" stroke-linecap="round" stroke-width="0.87" opacity="0.390"/><line x1="952" y1="606" x2="1016" y2="606" stroke="#F6D9B6" fill="none" stroke-linecap="round" stroke-width="0.87" opacity="0.390"/><line x1="952" y1="652" x2="1016" y2="652" stroke="#F6D9B6" fill="none" stroke-linecap="round" stroke-width="0.87" opacity="0.390"/><line x1="952" y1="698" x2="1016" y2="698" stroke="#F6D9B6" fill="none" stroke-linecap="round" stroke-width="0.87" opacity="0.390"/><line x1="952" y1="744" x2="1016" y2="744" stroke="#F6D9B6" fill="none" stroke-linecap="round" stroke-width="0.87" opacity="0.390"/><line x1="952" y1="790" x2="1016" y2="790" stroke="#F6D9B6" fill="none" stroke-linecap="round" stroke-width="0.87" opacity="0.390"/><line x1="952" y1="836" x2="1016" y2="836" stroke="#F6D9B6" fill="none" stroke-linecap="round" stroke-width="0.87" opacity="0.390"/><rect x="1064" y="545" width="154" height="375" fill="#D98A3C" fill-opacity="0.234" stroke="#F6D9B6" stroke-width="1.59" opacity="0.819"/><line x1="1072" y1="591" x2="1211" y2="591" stroke="#F6D9B6" fill="none" stroke-linecap="round" stroke-width="0.87" opacity="0.390"/><line x1="1072" y1="637" x2="1211" y2="637" stroke="#F6D9B6" fill="none" stroke-linecap="round" stroke-width="0.87" opacity="0.390"/><line x1="1072" y1="683" x2="1211" y2="683" stroke="#F6D9B6" fill="none" stroke-linecap="round" stroke-width="0.87" opacity="0.390"/><line x1="1072" y1="729" x2="1211" y2="729" stroke="#F6D9B6" fill="none" stroke-linecap="round" stroke-width="0.87" opacity="0.390"/><line x1="1072" y1="775" x2="1211" y2="775" stroke="#F6D9B6" fill="none" stroke-linecap="round" stroke-width="0.87" opacity="0.390"/><line x1="1072" y1="821" x2="1211" y2="821" stroke="#F6D9B6" fill="none" stroke-linecap="round" stroke-width="0.87" opacity="0.390"/><line x1="1072" y1="867" x2="1211" y2="867" stroke="#F6D9B6" fill="none" stroke-linecap="round" stroke-width="0.87" opacity="0.390"/><rect x="1246" y="355" width="85" height="565" fill="#D98A3C" fill-opacity="0.234" stroke="#F6D9B6" stroke-width="1.59" opacity="0.819"/><line x1="1254" y1="401" x2="1323" y2="401" stroke="#F6D9B6" fill="none" stroke-linecap="round" stroke-width="0.87" opacity="0.390"/><line x1="1254" y1="447" x2="1323" y2="447" stroke="#F6D9B6" fill="none" stroke-linecap="round" stroke-width="0.87" opacity="0.390"/><line x1="1254" y1="493" x2="1323" y2="493" stroke="#F6D9B6" fill="none" stroke-linecap="round" stroke-width="0.87" opacity="0.390"/><line x1="1254" y1="539" x2="1323" y2="539" stroke="#F6D9B6" fill="none" stroke-linecap="round" stroke-width="0.87" opacity="0.390"/><line x1="1254" y1="585" x2="1323" y2="585" stroke="#F6D9B6" fill="none" stroke-linecap="round" stroke-width="0.87" opacity="0.390"/><line x1="1254" y1="631" x2="1323" y2="631" stroke="#F6D9B6" fill="none" stroke-linecap="round" stroke-width="0.87" opacity="0.390"/><line x1="1254" y1="677" x2="1323" y2="677" stroke="#F6D9B6" fill="none" stroke-linecap="round" stroke-width="0.87" opacity="0.390"/><line x1="1254" y1="723" x2="1323" y2="723" stroke="#F6D9B6" fill="none" stroke-linecap="round" stroke-width="0.87" opacity="0.390"/><line x1="1254" y1="769" x2="1323" y2="769" stroke="#F6D9B6" fill="none" stroke-linecap="round" stroke-width="0.87" opacity="0.390"/><line x1="1254" y1="815" x2="1323" y2="815" stroke="#F6D9B6" fill="none" stroke-linecap="round" stroke-width="0.87" opacity="0.390"/><line x1="1254" y1="861" x2="1323" y2="861" stroke="#F6D9B6" fill="none" stroke-linecap="round" stroke-width="0.87" opacity="0.390"/><rect x="1352" y="538" width="160" height="382" fill="#D98A3C" fill-opacity="0.234" stroke="#F6D9B6" stroke-width="1.59" opacity="0.819"/><line x1="1360" y1="584" x2="1504" y2="584" stroke="#F6D9B6" fill="none" stroke-linecap="round" stroke-width="0.87" opacity="0.390"/><line x1="1360" y1="630" x2="1504" y2="630" stroke="#F6D9B6" fill="none" stroke-linecap="round" stroke-width="0.87" opacity="0.390"/><line x1="1360" y1="676" x2="1504" y2="676" stroke="#F6D9B6" fill="none" stroke-linecap="round" stroke-width="0.87" opacity="0.390"/><line x1="1360" y1="722" x2="1504" y2="722" stroke="#F6D9B6" fill="none" stroke-linecap="round" stroke-width="0.87" opacity="0.390"/><line x1="1360" y1="768" x2="1504" y2="768" stroke="#F6D9B6" fill="none" stroke-linecap="round" stroke-width="0.87" opacity="0.390"/><line x1="1360" y1="814" x2="1504" y2="814" stroke="#F6D9B6" fill="none" stroke-linecap="round" stroke-width="0.87" opacity="0.390"/><line x1="1360" y1="860" x2="1504" y2="860" stroke="#F6D9B6" fill="none" stroke-linecap="round" stroke-width="0.87" opacity="0.390"/><rect x="1531" y="372" width="133" height="548" fill="#D98A3C" fill-opacity="0.234" stroke="#F6D9B6" stroke-width="1.59" opacity="0.819"/><line x1="1539" y1="418" x2="1656" y2="418" stroke="#F6D9B6" fill="none" stroke-linecap="round" stroke-width="0.87" opacity="0.390"/><line x1="1539" y1="464" x2="1656" y2="464" stroke="#F6D9B6" fill="none" stroke-linecap="round" stroke-width="0.87" opacity="0.390"/><line x1="1539" y1="510" x2="1656" y2="510" stroke="#F6D9B6" fill="none" stroke-linecap="round" stroke-width="0.87" opacity="0.390"/><line x1="1539" y1="556" x2="1656" y2="556" stroke="#F6D9B6" fill="none" stroke-linecap="round" stroke-width="0.87" opacity="0.390"/><line x1="1539" y1="602" x2="1656" y2="602" stroke="#F6D9B6" fill="none" stroke-linecap="round" stroke-width="0.87" opacity="0.390"/><line x1="1539" y1="648" x2="1656" y2="648" stroke="#F6D9B6" fill="none" stroke-linecap="round" stroke-width="0.87" opacity="0.390"/><line x1="1539" y1="694" x2="1656" y2="694" stroke="#F6D9B6" fill="none" stroke-linecap="round" stroke-width="0.87" opacity="0.390"/><line x1="1539" y1="740" x2="1656" y2="740" stroke="#F6D9B6" fill="none" stroke-linecap="round" stroke-width="0.87" opacity="0.390"/><line x1="1539" y1="786" x2="1656" y2="786" stroke="#F6D9B6" fill="none" stroke-linecap="round" stroke-width="0.87" opacity="0.390"/><line x1="1539" y1="832" x2="1656" y2="832" stroke="#F6D9B6" fill="none" stroke-linecap="round" stroke-width="0.87" opacity="0.390"/><rect width="1600" height="1000" fill="url(#vgart-p7)"/><rect width="1600" height="1000" filter="url(#nzart-p7)" opacity="0.055"/></svg>