<svg xmlns="http://www.w3.org/2000/svg" viewBox="0 0 1600 1000" width="1600" height="1000" preserveAspectRatio="xMidYMid slice"><defs><linearGradient id="bgart-news-4" x1="0" y1="0" x2="0.6" y2="1"><stop offset="0" stop-color="#38240F"/><stop offset="1" stop-color="#160E07"/></linearGradient><radialGradient id="glart-news-4" cx="0.68" cy="0.22" r="0.75"><stop offset="0" stop-color="#D98A3C" stop-opacity="0.92"/><stop offset="0.5" stop-color="#D98A3C" stop-opacity="0.30"/><stop offset="1" stop-color="#D98A3C" stop-opacity="0"/></radialGradient><linearGradient id="vgart-news-4" x1="0" y1="0" x2="0" y2="1"><stop offset="0" stop-color="#000" stop-opacity="0.22"/><stop offset="0.45" stop-color="#000" stop-opacity="0"/><stop offset="1" stop-color="#000" stop-opacity="0.48"/></linearGradient><pattern id="grart-news-4" width="46" height="46" patternUnits="userSpaceOnUse"><path d="M46 0 L0 0 0 46" fill="none" stroke="#F6D9B6" stroke-width="0.6" opacity="0.13"/></pattern><filter id="nzart-news-4"><feTurbulence type="fractalNoise" baseFrequency="0.9" numOctaves="3" seed="82"/><feColorMatrix type="saturate" values="0"/></filter></defs><rect width="1600" height="1000" fill="url(#bgart-news-4)"/><rect width="1600" height="1000" fill="url(#grart-news-4)"/><rect width="1600" height="1000" fill="url(#glart-news-4)"/><path d="M1179.7 216.2 L1177.8 220.1 L1175.7 223.9 L1173.4 227.5 L1170.5 231.0 L1165.9 234.0 L1159.2 236.2 L1151.0 237.4 L1142.7 237.9 L1135.9 238.5 L1131.5 239.9 L1129.1 242.9 L1127.6 247.2 L1125.5 252.1 L1121.8 256.8 L1116.3 260.4 L1109.5 262.7 L1102.0 264.1 L1094.1 264.9 L1086.1 265.2 L1078.0 264.8 L1070.5 263.2 L1064.1 260.2 L1059.3 256.0 L1055.9 251.5 L1053.0 247.5 L1049.4 244.6 L1044.4 242.7 L1038.0 241.3 L1031.6 239.5 L1026.5 237.0 L1023.7 233.7 L1023.3 229.9 L1024.1 226.2 L1024.7 222.7 L1024.3 219.4 L1023.1 216.2 L1021.8 212.8 L1021.5 209.4 L1022.2 205.9 L1023.3 202.4 L1023.9 198.7 L1023.5 194.5 L1022.7 189.5 L1022.7 184.2 L1025.2 179.4 L1030.8 176.0 L1039.3 174.5 L1049.3 174.8 L1059.3 176.4 L1068.2 178.3 L1075.8 179.7 L1082.3 180.5 L1088.3 180.9 L1094.1 181.3 L1099.7 182.0 L1105.2 182.5 L1111.0 182.5 L1117.6 181.7 L1125.4 180.3 L1134.2 179.2 L1142.8 179.1 L1150.1 180.6 L1155.1 183.6 L1158.0 187.6 L1159.8 191.6 L1162.1 195.2 L1165.7 198.4 L1170.5 201.4 L1175.4 204.6 L1178.9 208.2 L1180.3 212.2 L1179.7 216.2 Z" fill="none" stroke="#F6D9B6" stroke-width="0.80" opacity="0.550"/><path d="M1211.0 216.2 L1205.7 221.4 L1198.7 226.0 L1191.1 230.0 L1185.1 233.9 L1182.3 238.1 L1182.8 243.5 L1184.9 250.1 L1185.9 257.3 L1183.7 264.0 L1177.5 269.2 L1168.4 272.8 L1158.0 275.2 L1147.7 277.5 L1137.9 280.4 L1128.1 283.9 L1117.6 287.2 L1106.1 289.3 L1094.1 289.4 L1082.4 287.8 L1071.2 285.3 L1060.5 283.0 L1049.8 281.0 L1039.2 279.0 L1029.4 276.0 L1021.8 271.2 L1017.7 264.8 L1016.6 257.5 L1017.0 250.7 L1016.2 245.3 L1012.2 241.4 L1004.6 238.4 L994.6 235.5 L984.5 231.8 L976.1 227.3 L970.0 222.0 L965.3 216.2 L960.9 210.0 L956.7 203.3 L953.8 196.1 L954.3 189.0 L959.7 182.7 L970.0 178.0 L983.6 174.9 L997.7 173.0 L1009.9 171.3 L1019.6 168.8 L1027.4 165.4 L1035.1 161.7 L1043.9 158.7 L1053.9 157.3 L1064.5 157.4 L1074.9 158.2 L1084.7 158.7 L1094.1 158.3 L1103.8 157.2 L1113.9 156.3 L1124.1 156.4 L1133.9 157.9 L1143.0 160.2 L1152.2 162.5 L1162.8 163.9 L1175.6 164.4 L1190.4 164.8 L1205.2 166.4 L1217.5 170.1 L1225.0 175.9 L1227.2 183.1 L1225.4 190.7 L1221.8 197.9 L1218.1 204.5 L1214.7 210.6 L1211.0 216.2 Z" fill="none" stroke="#F6D9B6" stroke-width="1.15" opacity="0.537"/><path d="M1266.6 216.2 L1275.9 224.7 L1280.9 233.7 L1280.0 242.7 L1273.9 251.1 L1265.1 258.7 L1255.7 265.9 L1246.0 272.9 L1235.2 279.3 L1221.7 284.2 L1205.0 286.7 L1186.2 286.3 L1167.7 284.2 L1151.8 282.2 L1139.1 282.1 L1128.7 285.0 L1118.6 290.3 L1107.2 296.2 L1094.1 300.9 L1079.8 303.3 L1065.2 303.6 L1050.5 303.0 L1035.2 302.5 L1018.9 302.2 L1001.9 301.3 L985.8 298.7 L972.5 293.5 L963.1 286.1 L957.0 277.5 L952.2 269.2 L946.0 261.8 L937.5 255.1 L928.1 248.4 L920.7 241.0 L918.5 232.7 L922.7 224.2 L931.8 216.2 L942.4 209.1 L951.2 202.7 L956.6 196.5 L959.3 190.0 L961.7 183.3 L965.7 176.6 L971.8 170.5 L978.8 164.6 L985.0 158.0 L989.8 149.9 L994.2 140.1 L1000.3 129.6 L1010.3 120.3 L1024.6 114.3 L1042.0 112.6 L1060.5 114.4 L1078.0 118.3 L1094.1 122.3 L1109.0 125.4 L1123.3 127.7 L1137.1 130.5 L1149.7 134.7 L1160.4 140.4 L1169.3 146.7 L1177.8 152.4 L1187.7 156.7 L1199.8 159.8 L1213.5 162.7 L1226.4 166.8 L1235.9 172.5 L1241.0 179.7 L1242.7 187.3 L1244.1 194.7 L1248.2 201.7 L1256.2 208.6 L1266.6 216.2 Z" fill="none" stroke="#F6D9B6" stroke-width="1.50" opacity="0.525"/><path d="M1367.2 216.2 L1355.5 228.4 L1337.9 239.1 L1319.0 248.3 L1301.2 256.4 L1284.6 263.6 L1267.5 269.6 L1249.0 274.0 L1229.9 277.0 L1212.5 279.4 L1199.0 282.9 L1189.7 289.0 L1182.6 298.0 L1174.8 308.5 L1163.7 318.2 L1148.7 324.9 L1131.0 327.7 L1112.4 327.6 L1094.1 326.9 L1075.8 327.6 L1056.4 330.3 L1035.0 333.8 L1012.4 336.0 L990.1 335.1 L970.0 330.8 L952.6 323.9 L937.4 315.8 L923.1 307.4 L909.9 298.6 L899.5 288.9 L895.1 277.4 L899.0 264.7 L910.7 251.8 L926.2 240.2 L939.8 230.7 L946.2 223.1 L943.3 216.2 L933.2 208.7 L920.4 199.8 L909.5 189.8 L902.9 179.1 L900.4 168.0 L900.4 156.5 L901.8 144.4 L905.2 131.6 L912.8 119.5 L926.5 109.7 L946.5 103.8 L970.7 102.2 L995.7 103.6 L1018.8 105.8 L1039.0 106.5 L1057.3 105.0 L1075.4 102.4 L1094.1 100.9 L1112.8 102.4 L1130.0 107.6 L1144.7 115.4 L1157.3 123.5 L1169.2 130.2 L1181.9 135.1 L1195.8 138.7 L1209.9 142.6 L1222.9 147.5 L1234.6 153.3 L1246.7 159.2 L1262.2 164.4 L1283.2 169.2 L1309.0 174.5 L1335.7 181.7 L1357.3 191.4 L1368.5 203.4 L1367.2 216.2 Z" fill="none" stroke="#F6D9B6" stroke-width="0.80" opacity="0.512"/><path d="M1284.6 216.2 L1298.4 225.7 L1317.7 237.2 L1335.2 250.6 L1344.9 264.9 L1344.5 278.4 L1335.7 290.6 L1322.6 301.5 L1308.4 312.1 L1294.0 322.8 L1278.1 333.2 L1259.0 341.8 L1236.0 347.3 L1210.6 349.5 L1185.2 349.7 L1161.4 350.2 L1139.2 352.5 L1117.2 356.7 L1094.1 360.7 L1070.3 361.3 L1047.7 356.5 L1028.7 346.4 L1014.3 333.2 L1003.1 320.2 L992.2 310.3 L978.5 304.3 L960.8 300.9 L940.4 298.2 L919.3 294.4 L898.8 289.1 L878.5 282.6 L856.3 275.3 L831.2 267.2 L804.9 257.5 L782.4 245.5 L769.9 231.3 L771.6 216.2 L787.4 201.9 L812.5 189.7 L839.7 179.8 L862.8 171.3 L879.5 162.8 L891.5 153.8 L902.4 144.6 L915.4 136.2 L931.2 129.3 L948.4 123.6 L964.7 117.7 L979.5 110.3 L993.8 101.5 L1009.8 92.6 L1028.6 85.9 L1050.1 83.1 L1072.4 84.2 L1094.1 87.1 L1115.0 88.8 L1136.8 87.1 L1161.5 82.1 L1189.7 76.1 L1219.9 72.3 L1248.7 73.4 L1272.7 80.1 L1290.6 91.3 L1303.1 104.7 L1312.3 118.5 L1319.1 132.2 L1322.7 145.8 L1321.2 159.7 L1313.2 173.6 L1300.4 186.7 L1287.7 198.0 L1280.9 207.5 L1284.6 216.2 Z" fill="none" stroke="#F6D9B6" stroke-width="1.15" opacity="0.500"/><path d="M1451.9 216.2 L1448.4 232.7 L1440.3 248.7 L1430.1 264.2 L1417.3 278.9 L1398.9 292.0 L1372.1 301.8 L1337.5 307.1 L1299.2 308.0 L1263.6 306.6 L1236.0 306.3 L1217.8 310.4 L1206.4 319.9 L1196.7 333.6 L1184.3 348.3 L1167.0 361.2 L1145.3 370.9 L1120.6 378.0 L1094.1 384.1 L1065.6 390.2 L1034.8 395.5 L1002.8 397.8 L972.1 394.9 L945.6 386.0 L924.8 372.6 L908.3 357.7 L892.8 344.1 L874.8 333.2 L853.6 323.8 L832.3 313.9 L816.3 301.7 L810.1 286.8 L814.6 270.4 L826.3 254.5 L838.9 240.2 L847.4 227.7 L849.8 216.2 L848.6 204.7 L847.3 193.0 L848.5 181.1 L851.5 169.1 L853.2 156.3 L850.7 141.2 L844.3 122.9 L838.0 101.6 L837.8 79.5 L848.9 60.4 L872.4 47.3 L905.3 41.8 L942.3 42.5 L978.3 46.6 L1011.1 51.1 L1040.7 54.7 L1068.2 58.1 L1094.1 63.0 L1118.0 70.3 L1139.4 79.2 L1158.7 87.6 L1178.1 93.1 L1200.1 94.9 L1225.8 94.5 L1253.7 94.6 L1279.8 98.1 L1300.5 106.1 L1314.8 117.4 L1325.5 129.8 L1337.7 141.2 L1355.8 151.1 L1380.4 160.6 L1407.9 171.3 L1431.9 184.4 L1447.2 199.7 L1451.9 216.2 Z" fill="none" stroke="#F6D9B6" stroke-width="1.50" opacity="0.487"/><path d="M1424.2 216.2 L1425.8 231.7 L1427.7 247.5 L1422.8 263.1 L1406.7 276.9 L1380.6 287.4 L1350.3 295.1 L1323.0 301.7 L1303.2 309.8 L1290.8 321.1 L1281.8 335.5 L1271.4 351.3 L1256.8 366.5 L1237.7 380.4 L1215.4 393.9 L1190.7 408.5 L1163.0 424.6 L1130.9 440.5 L1094.1 452.2 L1054.9 455.3 L1017.6 447.5 L986.6 430.1 L963.9 407.0 L947.7 383.6 L934.3 363.8 L920.0 348.8 L903.9 337.0 L887.6 326.3 L873.4 314.9 L861.8 302.9 L850.4 291.2 L835.1 280.6 L813.2 270.7 L786.1 260.2 L759.4 247.7 L740.2 232.7 L733.0 216.2 L737.2 199.5 L747.0 183.5 L755.1 167.7 L757.2 150.8 L754.2 131.6 L751.7 110.8 L756.8 90.2 L773.7 72.8 L802.0 60.4 L837.5 53.1 L875.0 49.3 L911.2 47.2 L945.6 46.3 L979.0 47.5 L1011.8 52.4 L1043.0 61.6 L1070.7 73.3 L1094.1 83.5 L1115.1 88.0 L1137.6 84.5 L1165.5 74.0 L1200.3 60.6 L1239.8 49.5 L1279.9 44.6 L1316.5 46.8 L1348.2 54.7 L1376.4 65.6 L1402.9 78.0 L1428.0 91.5 L1449.0 106.9 L1461.5 124.8 L1462.7 144.6 L1453.7 164.8 L1440.1 183.6 L1428.8 200.6 L1424.2 216.2 Z" fill="none" stroke="#F6D9B6" stroke-width="0.80" opacity="0.474"/><path d="M1406.0 216.2 L1435.2 232.1 L1464.4 251.0 L1485.3 272.1 L1494.2 293.9 L1492.7 315.3 L1484.5 336.4 L1472.0 357.3 L1454.4 377.4 L1428.7 394.7 L1393.0 406.2 L1348.5 410.0 L1300.2 406.6 L1254.4 399.5 L1215.2 393.7 L1182.9 392.9 L1154.2 398.0 L1125.3 406.2 L1094.1 413.0 L1061.6 414.5 L1030.0 410.0 L1001.0 401.5 L973.8 392.4 L946.1 385.4 L916.2 380.5 L884.4 375.9 L853.7 369.0 L826.6 358.8 L803.5 346.2 L780.9 333.1 L753.7 321.0 L718.8 309.5 L678.3 296.9 L640.0 281.1 L614.4 261.3 L609.3 238.8 L625.7 216.2 L657.9 195.8 L696.0 178.7 L731.6 164.4 L761.0 151.5 L785.5 139.4 L808.7 128.3 L832.8 118.6 L856.6 109.9 L877.0 100.4 L891.4 87.4 L900.9 69.1 L910.1 46.2 L924.6 22.4 L948.4 2.6 L980.9 -9.1 L1018.7 -11.8 L1057.3 -8.4 L1094.1 -3.2 L1129.6 -0.1 L1165.5 0.1 L1203.0 -0.5 L1240.7 1.4 L1275.9 8.2 L1306.3 20.1 L1332.0 35.0 L1355.2 50.2 L1378.4 64.6 L1401.2 78.7 L1420.1 94.4 L1429.5 112.9 L1426.0 133.6 L1411.5 154.6 L1393.7 173.4 L1382.9 189.0 L1386.6 202.5 L1406.0 216.2 Z" fill="none" stroke="#F6D9B6" stroke-width="1.15" opacity="0.462"/><path d="M1612.6 216.2 L1610.5 240.3 L1593.0 263.1 L1566.3 283.7 L1536.5 302.1 L1506.2 318.7 L1473.6 333.0 L1435.6 343.7 L1391.1 349.1 L1343.8 349.4 L1300.3 347.3 L1266.9 347.8 L1245.3 355.8 L1231.8 373.7 L1219.2 399.5 L1200.5 427.9 L1172.4 453.1 L1135.9 470.8 L1094.1 480.5 L1050.1 484.4 L1005.2 485.1 L959.8 483.6 L915.1 478.4 L874.6 467.3 L842.0 449.0 L819.8 425.1 L806.1 399.3 L795.0 375.7 L780.1 356.7 L758.1 341.7 L731.7 327.8 L708.4 312.1 L696.4 293.4 L699.2 272.6 L713.7 252.0 L731.4 233.1 L743.2 216.2 L744.4 199.9 L736.9 182.6 L726.5 163.7 L719.5 143.5 L718.2 122.7 L720.7 101.2 L723.4 77.7 L725.1 51.1 L729.0 21.5 L741.5 -7.9 L768.2 -32.0 L810.6 -45.7 L864.4 -46.6 L921.8 -36.2 L975.5 -19.9 L1021.4 -3.6 L1060.1 8.8 L1094.1 16.8 L1125.9 22.5 L1156.2 28.5 L1184.8 35.7 L1212.5 42.7 L1242.0 47.0 L1276.7 47.5 L1318.5 45.3 L1364.9 44.1 L1409.8 47.8 L1446.1 58.7 L1470.3 75.7 L1484.6 95.9 L1496.4 116.1 L1513.3 134.8 L1539.0 152.6 L1569.9 171.4 L1597.5 192.7 L1612.6 216.2 Z" fill="none" stroke="#F6D9B6" stroke-width="1.50" opacity="0.449"/><path d="M1537.6 216.2 L1522.9 236.2 L1503.1 254.6 L1476.8 270.9 L1447.8 284.8 L1424.6 298.4 L1414.5 314.8 L1419.4 337.7 L1433.7 368.2 L1446.2 403.9 L1445.8 439.7 L1426.9 469.6 L1390.4 489.9 L1342.6 500.4 L1290.5 504.0 L1238.7 504.0 L1188.6 502.1 L1140.2 497.4 L1094.1 487.7 L1052.1 472.2 L1015.8 452.9 L984.6 434.1 L954.6 420.6 L921.0 414.1 L881.1 412.9 L837.0 412.0 L795.2 406.1 L762.9 392.8 L743.4 373.1 L733.8 350.7 L726.2 329.5 L712.0 311.2 L687.6 295.1 L655.5 278.9 L622.8 260.5 L596.5 239.4 L579.1 216.2 L568.1 191.6 L559.2 165.9 L550.9 138.6 L547.1 110.0 L555.9 82.3 L584.4 59.2 L634.3 44.5 L699.4 39.6 L768.4 42.5 L829.7 48.1 L877.1 50.9 L911.1 47.2 L937.5 37.1 L962.7 23.6 L990.6 10.2 L1022.2 -1.3 L1056.7 -11.9 L1094.1 -23.5 L1135.6 -37.0 L1182.3 -50.6 L1232.7 -59.6 L1282.4 -59.8 L1326.1 -49.2 L1360.4 -29.8 L1386.8 -6.8 L1411.4 14.5 L1440.7 31.3 L1477.7 44.5 L1519.0 57.5 L1556.2 73.9 L1580.7 95.2 L1588.3 120.3 L1581.3 146.6 L1566.8 171.7 L1551.4 194.8 L1537.6 216.2 Z" fill="none" stroke="#F6D9B6" stroke-width="0.80" opacity="0.437"/><path d="M1619.5 216.2 L1644.9 241.9 L1671.3 270.5 L1685.7 300.7 L1678.5 329.6 L1648.3 354.0 L1601.9 372.5 L1549.4 386.2 L1498.9 397.3 L1453.0 407.6 L1409.7 416.8 L1365.7 423.1 L1320.2 425.1 L1275.7 423.9 L1235.6 423.5 L1201.1 429.2 L1169.5 444.3 L1135.3 467.6 L1094.1 493.5 L1045.2 514.4 L992.3 524.1 L940.9 521.2 L894.4 508.8 L852.5 492.5 L812.4 476.4 L771.4 462.0 L730.6 447.2 L694.2 429.4 L667.2 407.2 L650.5 381.8 L640.4 355.9 L629.5 331.7 L612.4 309.7 L589.7 288.3 L569.0 265.6 L560.7 241.1 L571.9 216.2 L601.3 193.2 L639.6 173.4 L673.8 156.1 L694.0 138.5 L698.9 117.9 L694.6 93.2 L691.2 65.7 L696.3 38.2 L712.2 12.5 L736.3 -11.2 L764.8 -34.6 L796.4 -58.8 L833.0 -82.5 L877.3 -101.5 L930.0 -110.5 L987.6 -105.9 L1044.0 -89.0 L1094.1 -65.2 L1136.5 -42.2 L1174.2 -26.1 L1212.0 -18.5 L1252.7 -16.2 L1295.3 -13.9 L1336.2 -7.4 L1372.3 4.3 L1403.9 19.2 L1435.0 34.4 L1469.7 48.1 L1508.7 61.4 L1547.6 76.5 L1578.9 95.6 L1596.8 118.6 L1601.6 143.7 L1600.7 168.5 L1604.3 192.4 L1619.5 216.2 Z" fill="none" stroke="#F6D9B6" stroke-width="1.15" opacity="0.424"/><path d="M1649.5 216.2 L1668.7 243.0 L1676.7 271.0 L1665.9 297.9 L1636.5 321.5 L1596.7 341.2 L1558.9 359.3 L1532.3 379.8 L1518.4 406.1 L1510.1 438.1 L1496.6 472.0 L1469.2 501.9 L1426.0 522.8 L1371.2 533.1 L1311.7 535.0 L1253.0 532.5 L1197.3 528.2 L1144.2 521.9 L1094.1 511.3 L1048.4 494.5 L1009.3 472.6 L976.4 450.5 L945.1 434.5 L908.0 429.1 L858.5 433.8 L795.7 443.5 L725.7 450.4 L659.0 448.2 L605.5 434.8 L568.9 412.3 L545.9 385.0 L529.5 356.6 L514.2 328.7 L500.1 301.1 L492.3 272.8 L496.2 244.1 L512.8 216.2 L536.4 190.2 L557.2 165.7 L567.9 141.0 L568.3 114.1 L566.5 85.0 L574.4 56.2 L601.2 32.1 L647.7 16.4 L706.4 9.4 L765.9 7.6 L817.3 5.3 L857.7 -2.2 L890.8 -16.3 L922.9 -34.7 L958.8 -53.1 L999.9 -68.8 L1045.2 -82.0 L1094.1 -94.9 L1147.5 -109.4 L1206.7 -124.4 L1270.6 -135.1 L1333.9 -135.2 L1388.4 -120.4 L1426.9 -91.2 L1447.7 -53.1 L1456.3 -14.1 L1462.8 19.5 L1476.3 45.1 L1500.1 64.6 L1530.4 81.8 L1559.7 100.4 L1582.4 121.4 L1598.1 144.2 L1611.7 167.5 L1628.6 191.2 L1649.5 216.2 Z" fill="none" stroke="#F6D9B6" stroke-width="1.50" opacity="0.411"/><path d="M1736.0 216.2 L1788.3 248.6 L1817.5 284.2 L1816.8 319.5 L1789.8 351.2 L1746.9 378.5 L1698.3 402.2 L1648.7 423.3 L1597.1 441.3 L1540.1 454.0 L1477.2 459.7 L1412.4 458.6 L1352.8 455.1 L1303.3 455.5 L1263.9 465.0 L1229.0 484.6 L1191.1 509.7 L1146.0 532.4 L1094.1 545.4 L1040.0 545.9 L988.1 536.7 L939.4 524.1 L891.1 513.7 L839.5 507.4 L783.7 502.9 L726.9 495.9 L674.5 482.9 L629.8 463.8 L591.4 441.2 L553.9 417.9 L512.7 395.2 L468.5 371.8 L429.9 345.1 L409.6 314.0 L417.7 279.8 L454.6 246.0 L510.2 216.2 L567.2 191.6 L610.4 170.7 L632.7 150.2 L637.9 127.6 L636.0 102.2 L636.7 75.4 L644.6 48.3 L658.1 21.0 L673.3 -8.2 L689.2 -41.1 L709.3 -76.9 L739.9 -111.1 L785.3 -137.0 L844.7 -149.3 L911.7 -146.9 L978.3 -134.1 L1039.1 -118.9 L1094.1 -108.4 L1146.8 -105.4 L1201.0 -107.1 L1256.6 -107.4 L1310.3 -100.6 L1357.5 -85.1 L1396.6 -63.3 L1430.0 -39.7 L1462.4 -17.9 L1496.5 1.5 L1530.4 20.9 L1558.1 42.9 L1574.2 68.3 L1579.4 95.5 L1581.7 121.5 L1593.6 144.8 L1624.8 166.3 L1675.8 189.0 L1736.0 216.2 Z" fill="none" stroke="#F6D9B6" stroke-width="0.80" opacity="0.399"/><path d="M1780.9 216.2 L1736.2 246.1 L1690.1 272.2 L1652.7 296.0 L1625.7 319.4 L1603.9 343.0 L1581.0 366.1 L1555.0 388.3 L1529.1 410.9 L1508.5 437.2 L1494.9 470.9 L1483.4 512.7 L1464.5 558.4 L1429.2 599.5 L1374.3 626.8 L1304.4 634.8 L1229.1 624.4 L1157.5 602.6 L1094.1 578.4 L1038.0 558.4 L985.7 544.2 L935.0 532.9 L886.3 520.6 L841.4 505.2 L799.8 488.0 L757.6 472.5 L709.5 460.6 L653.0 451.5 L592.2 440.8 L537.8 423.9 L501.6 398.6 L489.6 366.5 L497.3 332.0 L511.1 299.5 L515.0 270.6 L499.5 243.9 L466.0 216.2 L426.3 185.0 L395.1 150.4 L382.6 114.5 L390.1 79.5 L412.2 46.6 L442.3 15.5 L477.9 -13.9 L521.9 -39.9 L578.7 -58.7 L649.7 -66.3 L729.2 -61.8 L807.1 -49.0 L873.5 -36.1 L924.6 -32.2 L964.1 -42.6 L1000.7 -66.2 L1042.9 -96.0 L1094.1 -122.9 L1152.6 -140.2 L1214.0 -146.5 L1275.3 -144.4 L1336.1 -138.4 L1397.1 -130.4 L1457.3 -119.3 L1511.8 -102.0 L1554.7 -76.6 L1582.7 -44.4 L1599.5 -10.0 L1614.9 21.7 L1640.4 48.0 L1681.3 70.1 L1732.9 92.2 L1781.2 118.0 L1810.0 148.9 L1809.4 182.8 L1780.9 216.2 Z" fill="none" stroke="#F6D9B6" stroke-width="1.15" opacity="0.386"/><path d="M1931.5 216.2 L1940.1 255.7 L1917.1 293.6 L1873.6 327.6 L1823.1 357.7 L1773.7 385.2 L1725.6 410.6 L1673.6 432.6 L1613.4 448.6 L1546.7 457.6 L1480.6 461.9 L1423.6 467.2 L1379.5 479.8 L1344.7 502.9 L1310.8 533.7 L1269.3 564.9 L1217.0 588.0 L1156.7 598.0 L1094.1 595.9 L1033.1 587.8 L973.6 580.8 L912.1 578.5 L846.3 579.3 L777.8 578.0 L711.8 569.3 L653.9 551.5 L605.3 526.8 L562.2 499.9 L518.2 473.9 L470.6 449.0 L424.0 422.5 L390.1 391.3 L380.8 354.6 L400.7 315.3 L443.0 277.4 L491.2 244.3 L527.5 216.2 L541.4 190.4 L534.4 163.5 L517.4 133.8 L503.7 101.6 L501.3 68.7 L509.7 36.2 L523.5 3.1 L537.9 -32.7 L553.9 -71.9 L578.1 -111.8 L618.3 -146.2 L677.5 -168.7 L751.4 -175.8 L830.6 -169.9 L905.9 -158.3 L973.2 -149.4 L1034.4 -148.0 L1094.1 -152.9 L1155.5 -158.1 L1217.4 -156.6 L1275.5 -144.8 L1326.5 -124.4 L1371.1 -100.7 L1413.8 -79.1 L1459.2 -61.9 L1507.8 -46.8 L1555.0 -29.6 L1593.7 -7.4 L1620.7 19.5 L1639.9 48.1 L1662.6 74.8 L1700.1 98.5 L1756.9 121.5 L1825.6 147.4 L1889.9 179.0 L1931.5 216.2 Z" fill="none" stroke="#F6D9B6" stroke-width="1.50" opacity="0.374"/><path d="M1717.4 216.2 L1703.3 244.6 L1702.7 273.4 L1705.1 303.5 L1703.1 334.4 L1696.3 365.9 L1689.8 399.6 L1688.2 438.1 L1689.6 482.7 L1684.8 531.2 L1662.0 577.1 L1613.7 611.9 L1541.4 629.4 L1455.4 629.4 L1368.3 618.0 L1289.3 604.8 L1220.1 597.4 L1156.7 598.1 L1094.1 603.0 L1030.2 605.5 L967.0 600.8 L907.1 588.4 L851.0 572.3 L795.9 557.2 L738.2 545.0 L678.0 533.1 L621.0 516.9 L576.0 492.5 L549.1 460.1 L537.8 423.9 L530.1 389.8 L510.3 361.4 L467.4 337.8 L402.2 315.1 L327.8 288.2 L263.3 254.9 L224.3 216.2 L215.9 175.2 L232.3 135.1 L262.9 97.4 L300.1 62.0 L343.1 29.4 L396.8 1.5 L465.1 -18.7 L545.8 -29.2 L629.0 -31.9 L702.2 -32.9 L757.2 -40.4 L794.9 -60.2 L824.4 -92.3 L857.7 -130.3 L902.9 -164.4 L960.9 -186.8 L1026.6 -195.2 L1094.1 -193.3 L1160.4 -187.8 L1226.2 -183.5 L1293.5 -180.8 L1361.7 -176.0 L1426.9 -164.5 L1484.7 -144.7 L1534.4 -119.2 L1580.7 -93.1 L1631.8 -70.6 L1692.9 -51.8 L1760.9 -32.8 L1823.2 -8.3 L1863.6 24.8 L1870.5 65.5 L1844.4 109.0 L1798.2 150.0 L1750.7 185.5 L1717.4 216.2 Z" fill="none" stroke="#F6D9B6" stroke-width="0.80" opacity="0.361"/><path d="M1776.1 216.2 L1707.4 244.8 L1662.2 269.6 L1645.5 295.0 L1649.7 324.0 L1661.5 357.3 L1669.9 393.5 L1671.3 431.7 L1668.3 473.2 L1663.7 520.0 L1655.4 572.9 L1635.5 628.5 L1594.7 678.6 L1528.6 713.2 L1441.6 725.4 L1345.0 715.5 L1251.0 690.9 L1167.3 662.7 L1094.1 639.9 L1026.9 625.7 L961.8 616.4 L898.6 605.2 L840.7 587.5 L790.9 563.0 L747.7 536.1 L705.6 512.1 L658.4 493.1 L604.7 477.2 L550.0 459.7 L503.9 436.6 L473.1 407.4 L455.4 375.0 L438.6 343.4 L407.2 314.3 L351.4 286.0 L274.8 254.4 L193.9 216.2 L131.3 171.3 L104.1 123.1 L117.2 76.6 L162.9 35.4 L227.6 0.7 L299.7 -28.4 L375.3 -52.3 L456.3 -69.3 L544.9 -76.7 L638.4 -73.5 L727.9 -62.7 L803.6 -52.2 L859.9 -51.6 L900.5 -67.5 L935.5 -99.6 L976.3 -140.1 L1029.4 -178.0 L1094.1 -203.9 L1164.8 -214.9 L1236.5 -214.7 L1308.1 -209.8 L1381.9 -205.5 L1459.5 -201.8 L1538.8 -194.6 L1613.1 -179.2 L1675.4 -153.3 L1723.4 -119.5 L1762.0 -82.7 L1799.9 -47.4 L1843.4 -14.5 L1889.3 18.4 L1925.4 54.8 L1935.4 95.9 L1909.5 139.5 L1850.9 180.9 L1776.1 216.2 Z" fill="none" stroke="#F6D9B6" stroke-width="1.15" opacity="0.348"/><path d="M1965.3 216.2 L1976.7 257.4 L1969.9 298.5 L1951.2 338.7 L1931.1 378.7 L1915.6 420.5 L1901.4 464.8 L1876.4 508.3 L1828.1 544.7 L1751.3 566.7 L1652.9 571.4 L1548.3 562.1 L1453.3 548.0 L1376.8 539.6 L1317.4 543.4 L1266.5 559.4 L1215.0 581.9 L1157.7 603.9 L1094.1 621.4 L1025.3 635.3 L951.0 649.0 L868.8 664.5 L778.1 679.2 L683.3 686.0 L594.8 677.4 L524.7 649.9 L480.0 606.5 L457.5 555.7 L444.4 506.9 L425.3 465.9 L391.4 432.6 L345.2 402.4 L299.6 370.4 L269.2 334.1 L261.7 294.5 L273.7 254.5 L294.0 216.2 L311.8 179.7 L324.0 143.8 L336.9 108.0 L360.6 73.8 L400.9 43.8 L454.0 19.1 L507.4 -2.9 L547.8 -28.3 L569.5 -63.6 L578.6 -111.5 L589.6 -168.1 L617.7 -223.9 L670.5 -268.3 L745.8 -294.2 L834.0 -301.6 L924.8 -295.9 L1012.0 -284.1 L1094.1 -269.9 L1171.0 -252.6 L1241.2 -228.8 L1301.4 -196.5 L1349.7 -158.4 L1389.6 -121.8 L1430.4 -94.5 L1483.3 -80.3 L1554.3 -76.3 L1639.3 -74.6 L1724.7 -66.0 L1794.4 -45.3 L1838.7 -13.1 L1859.9 25.7 L1870.1 65.5 L1883.5 103.4 L1907.6 139.7 L1938.6 176.8 L1965.3 216.2 Z" fill="none" stroke="#F6D9B6" stroke-width="1.50" opacity="0.336"/><path d="M2000.6 216.2 L2015.7 259.2 L2037.1 304.9 L2054.9 353.5 L2054.8 402.7 L2027.4 448.3 L1974.4 487.2 L1906.6 519.6 L1836.8 548.5 L1771.7 577.6 L1709.0 607.0 L1640.5 632.4 L1559.6 646.2 L1467.1 642.8 L1371.7 623.0 L1284.1 594.5 L1210.8 569.3 L1150.1 557.7 L1094.1 563.2 L1034.2 581.3 L966.2 603.1 L890.9 620.7 L811.1 630.8 L727.5 635.5 L637.1 638.3 L537.0 640.5 L429.6 638.6 L325.6 626.0 L241.5 597.7 L191.4 553.3 L179.0 498.0 L194.6 439.9 L219.7 385.9 L237.3 338.6 L240.8 296.4 L237.1 256.2 L240.2 216.2 L262.0 177.4 L303.5 141.8 L354.5 110.5 L400.6 81.6 L432.0 51.5 L449.8 17.8 L464.5 -18.9 L488.2 -55.0 L526.9 -86.3 L577.5 -112.2 L630.8 -136.7 L679.4 -166.9 L723.2 -208.1 L769.6 -259.3 L828.5 -312.4 L905.2 -355.3 L996.7 -377.6 L1094.1 -375.7 L1187.6 -354.0 L1271.9 -321.5 L1346.5 -286.2 L1413.2 -251.5 L1471.5 -215.4 L1517.3 -174.7 L1546.7 -128.6 L1561.1 -80.7 L1570.4 -37.9 L1590.1 -5.8 L1633.5 14.8 L1703.6 28.5 L1790.0 43.1 L1873.9 64.8 L1937.7 95.6 L1974.5 133.4 L1990.8 174.3 L2000.6 216.2 Z" fill="none" stroke="#F6D9B6" stroke-width="0.80" opacity="0.323"/><path d="M1894.5 216.2 L1912.9 254.4 L1945.4 296.2 L1969.9 341.3 L1965.8 385.4 L1926.0 423.1 L1858.6 451.6 L1782.4 473.2 L1715.0 494.1 L1664.3 520.3 L1626.3 554.4 L1590.0 593.9 L1545.7 633.4 L1489.8 668.7 L1424.2 700.0 L1352.5 730.5 L1275.1 763.6 L1189.5 797.7 L1094.1 824.9 L992.7 834.1 L895.6 816.5 L815.1 771.5 L758.7 707.7 L723.9 639.6 L699.3 580.9 L670.6 538.7 L628.9 511.9 L574.3 493.4 L513.8 475.9 L454.4 455.1 L397.1 430.8 L336.6 404.6 L266.8 376.8 L188.5 345.6 L113.5 308.4 L60.4 264.4 L45.0 216.2 L70.4 168.4 L124.0 125.0 L183.4 86.0 L227.9 48.0 L249.7 6.2 L256.9 -41.6 L267.4 -92.5 L298.2 -140.0 L356.5 -177.2 L437.4 -201.2 L529.2 -214.1 L621.0 -220.9 L708.1 -225.3 L791.7 -227.0 L873.8 -222.2 L953.9 -207.8 L1028.3 -185.0 L1094.1 -161.5 L1153.9 -148.6 L1216.8 -154.9 L1293.8 -181.3 L1391.3 -219.2 L1505.5 -254.4 L1624.0 -273.4 L1731.4 -269.3 L1817.7 -243.8 L1882.1 -204.1 L1930.6 -158.2 L1969.4 -110.7 L1998.8 -62.4 L2012.8 -12.3 L2004.7 39.4 L1975.0 90.3 L1934.9 137.1 L1902.9 178.4 L1894.5 216.2 Z" fill="none" stroke="#F6D9B6" stroke-width="1.15" opacity="0.311"/><path d="M2022.0 216.2 L1987.5 257.9 L1977.3 299.2 L1981.4 343.0 L1979.8 388.1 L1954.6 430.2 L1900.2 464.4 L1825.1 489.2 L1746.4 508.1 L1678.7 528.0 L1626.3 554.5 L1583.2 588.7 L1538.3 626.6 L1483.6 661.7 L1417.8 690.5 L1344.4 714.4 L1267.0 739.1 L1184.8 769.4 L1094.1 804.3 L992.5 835.7 L884.1 851.4 L779.9 841.5 L692.9 804.1 L630.5 746.5 L590.1 681.8 L561.0 622.2 L531.2 574.0 L494.7 535.9 L454.3 502.5 L417.6 468.8 L389.2 433.2 L365.1 397.5 L334.1 363.7 L285.5 331.7 L217.9 298.6 L143.5 260.5 L83.4 216.2 L56.3 167.8 L68.2 119.7 L108.8 75.4 L158.1 34.5 L197.7 -6.8 L221.3 -52.6 L237.1 -103.8 L261.4 -156.5 L307.9 -203.1 L380.2 -237.6 L471.3 -258.2 L569.0 -268.8 L664.3 -275.3 L754.7 -281.1 L842.7 -284.3 L930.4 -279.1 L1015.9 -260.6 L1094.1 -229.6 L1161.4 -194.3 L1220.7 -166.8 L1281.7 -157.2 L1355.9 -167.5 L1449.7 -190.6 L1559.4 -213.6 L1673.0 -224.7 L1777.3 -218.1 L1865.5 -195.2 L1939.3 -162.1 L2005.6 -124.2 L2068.0 -83.7 L2122.1 -39.5 L2155.8 10.1 L2158.0 64.1 L2127.0 119.0 L2074.7 170.4 L2022.0 216.2 Z" fill="none" stroke="#F6D9B6" stroke-width="1.50" opacity="0.298"/><path d="M2220.0 216.2 L2283.3 271.7 L2300.9 329.7 L2267.9 383.9 L2196.4 430.2 L2106.9 468.1 L2016.7 500.3 L1932.3 529.2 L1850.3 554.6 L1764.4 573.7 L1673.5 584.5 L1583.6 589.0 L1503.8 594.6 L1439.2 610.8 L1385.8 643.7 L1332.7 691.1 L1268.1 742.6 L1187.2 783.8 L1094.1 803.6 L998.4 799.7 L908.0 779.1 L824.3 753.1 L742.7 731.0 L657.8 715.2 L569.1 701.1 L482.6 682.0 L406.2 653.4 L343.7 616.4 L290.3 575.9 L236.3 536.5 L174.7 499.3 L109.1 461.1 L54.7 417.9 L31.5 368.0 L52.1 314.2 L112.6 262.0 L192.3 216.2 L263.3 177.4 L304.0 141.9 L309.3 104.0 L291.0 60.3 L269.2 11.0 L260.6 -40.5 L271.3 -91.1 L297.0 -140.6 L330.6 -191.0 L370.1 -244.0 L420.5 -296.9 L489.9 -341.9 L582.2 -369.3 L692.3 -372.6 L807.9 -353.5 L916.0 -322.4 L1010.5 -293.6 L1094.1 -277.9 L1175.1 -277.6 L1260.1 -285.9 L1349.1 -291.5 L1436.3 -285.2 L1514.8 -264.9 L1583.0 -235.4 L1645.6 -203.9 L1709.6 -175.0 L1777.5 -148.3 L1843.6 -119.2 L1897.3 -83.8 L1930.7 -41.4 L1946.8 4.1 L1960.2 48.1 L1990.2 88.1 L2049.0 126.4 L2132.6 167.7 L2220.0 216.2 Z" fill="none" stroke="#F6D9B6" stroke-width="0.80" opacity="0.285"/><path d="M2248.4 216.2 L2290.3 272.0 L2295.4 329.2 L2273.6 384.7 L2237.7 438.2 L2193.7 489.6 L2137.5 537.5 L2060.1 576.9 L1957.2 602.4 L1835.3 611.5 L1710.9 608.2 L1602.0 603.1 L1518.6 608.3 L1457.1 631.4 L1404.3 670.7 L1345.4 716.4 L1272.3 755.2 L1186.3 778.0 L1094.1 783.9 L1001.7 779.4 L910.1 772.8 L816.6 768.6 L719.8 764.6 L623.6 754.3 L535.5 732.2 L461.6 697.9 L400.4 657.1 L341.6 617.5 L271.9 584.1 L185.1 555.6 L88.9 525.7 L3.9 487.3 L-46.4 437.6 L-47.9 379.4 L-4.5 319.5 L63.7 264.3 L131.6 216.2 L181.6 173.6 L210.8 133.1 L228.9 92.5 L248.6 52.1 L275.2 12.5 L304.3 -27.0 L326.1 -70.6 L335.6 -123.3 L338.5 -186.8 L350.2 -256.6 L387.9 -321.7 L460.2 -369.4 L562.5 -391.8 L680.3 -390.1 L797.5 -374.1 L904.7 -356.6 L1001.8 -346.7 L1094.1 -345.0 L1186.2 -345.3 L1277.7 -339.0 L1364.4 -321.9 L1443.8 -296.3 L1518.2 -268.9 L1593.9 -245.5 L1675.8 -226.9 L1761.1 -207.8 L1838.4 -180.8 L1893.5 -141.6 L1919.1 -91.9 L1922.1 -38.8 L1922.3 10.2 L1942.8 51.4 L1996.8 87.2 L2080.1 123.5 L2172.5 165.9 L2248.4 216.2 Z" fill="none" stroke="#F6D9B6" stroke-width="1.15" opacity="0.273"/><path d="M2372.6 216.2 L2372.5 275.8 L2356.7 334.9 L2315.0 390.7 L2240.4 438.7 L2137.3 475.6 L2023.2 502.3 L1920.7 524.9 L1845.5 552.4 L1797.8 591.5 L1763.1 641.4 L1720.9 693.6 L1656.8 735.9 L1568.9 759.2 L1466.9 762.4 L1363.8 753.0 L1268.0 742.3 L1179.8 738.4 L1094.1 742.6 L1006.6 749.6 L916.7 752.8 L826.3 749.3 L735.0 742.3 L637.7 738.1 L526.3 740.7 L396.9 747.2 L257.1 748.2 L126.7 732.1 L30.4 692.2 L-13.9 630.0 L-5.4 554.7 L39.0 478.6 L93.1 410.5 L135.0 353.2 L156.2 304.4 L162.8 259.6 L166.7 216.2 L175.0 173.3 L184.3 130.6 L184.3 86.2 L167.5 36.3 L138.1 -21.6 L112.8 -86.0 L113.7 -149.9 L155.7 -203.8 L238.0 -240.4 L345.2 -259.9 L455.7 -270.1 L553.8 -282.9 L636.6 -307.0 L712.4 -343.1 L792.9 -383.4 L885.0 -416.4 L987.5 -433.6 L1094.1 -433.9 L1198.8 -422.4 L1299.7 -405.8 L1397.2 -387.1 L1489.5 -363.2 L1570.0 -328.1 L1629.2 -278.2 L1662.2 -216.5 L1675.1 -153.1 L1686.5 -99.8 L1720.2 -64.0 L1793.0 -44.8 L1904.9 -33.5 L2038.2 -18.6 L2166.0 8.1 L2265.7 48.7 L2328.6 100.1 L2360.3 157.1 L2372.6 216.2 Z" fill="none" stroke="#F6D9B6" stroke-width="1.50" opacity="0.260"/><path d="M 640 300 L 220 1000 L 1380 1000 L 960 300 Z" fill="#D98A3C" opacity="0.195"/><path d="M 640 300 L 220 1000 M 960 300 L 1380 1000" stroke="#F6D9B6" fill="none" stroke-linecap="round" stroke-width="2.90" opacity="0.950"/><line x1="790.4" y1="300" x2="809.6" y2="303" stroke="#F6D9B6" fill="none" stroke-linecap="round" stroke-width="1.45" opacity="0.292"/><line x1="790.1092357288913" y1="306.28194412889" x2="809.8907642711087" y2="309.44347983506145" stroke="#F6D9B6" fill="none" stroke-linecap="round" stroke-width="1.49" opacity="0.292"/><line x1="789.455304096069" y1="320.41009668986766" x2="810.544695903931" y2="323.9349277476071" stroke="#F6D9B6" fill="none" stroke-linecap="round" stroke-width="1.58" opacity="0.312"/><line x1="788.5178805935442" y1="340.66307359626836" x2="811.4821194064558" y2="344.70869548874384" stroke="#F6D9B6" fill="none" stroke-linecap="round" stroke-width="1.70" opacity="0.332"/><line x1="787.3306739528165" y1="366.3125997848299" x2="812.6693260471835" y2="371.0177809221541" stroke="#F6D9B6" fill="none" stroke-linecap="round" stroke-width="1.86" opacity="0.370"/><line x1="785.9147149664219" y1="396.9043062810076" x2="814.0852850335781" y2="402.3961312996621" stroke="#F6D9B6" fill="none" stroke-linecap="round" stroke-width="2.05" opacity="0.409"/><line x1="784.2849760075106" y1="432.1147158871157" x2="815.7150239924894" y2="438.51195143849867" stroke="#F6D9B6" fill="none" stroke-linecap="round" stroke-width="2.27" opacity="0.449"/><line x1="782.4529177526808" y1="471.6962213926979" x2="817.5470822473192" y2="479.11126708565297" stroke="#F6D9B6" fill="none" stroke-linecap="round" stroke-width="2.52" opacity="0.487"/><line x1="780.4277302519062" y1="515.4502723353603" x2="819.5722697480938" y2="523.9904221954124" stroke="#F6D9B6" fill="none" stroke-linecap="round" stroke-width="2.79" opacity="0.526"/><line x1="778.2170263263386" y1="563.2123941840428" x2="821.7829736736614" y2="572.9807128916324" stroke="#F6D9B6" fill="none" stroke-linecap="round" stroke-width="3.09" opacity="0.585"/><line x1="775.8272659325419" y1="614.8430199759482" x2="824.1727340674581" y2="625.9389833467583" stroke="#F6D9B6" fill="none" stroke-linecap="round" stroke-width="3.41" opacity="0.643"/><line x1="773.2640335001191" y1="670.221498454217" x2="826.7359664998809" y2="682.7414798430398" stroke="#F6D9B6" fill="none" stroke-linecap="round" stroke-width="3.75" opacity="0.702"/><line x1="770.5322284332985" y1="729.241978292932" x2="829.4677715667015" y2="743.2796291633217" stroke="#F6D9B6" fill="none" stroke-linecap="round" stroke-width="4.12" opacity="0.780"/><line x1="767.6362011888365" y1="791.8104681424219" x2="832.3637988111635" y2="807.4570230375127" stroke="#F6D9B6" fill="none" stroke-linecap="round" stroke-width="4.51" opacity="0.839"/><line x1="764.5798536022996" y1="857.8426690861185" x2="835.4201463977004" y2="875.1871948626186" stroke="#F6D9B6" fill="none" stroke-linecap="round" stroke-width="4.92" opacity="0.916"/><line x1="761.3667148133563" y1="927.2623342793374" x2="838.6332851866437" y2="946.3919371608062" stroke="#F6D9B6" fill="none" stroke-linecap="round" stroke-width="5.35" opacity="0.950"/><line x1="120" y1="320" x2="340" y2="320" stroke="#F6D9B6" fill="none" stroke-linecap="round" stroke-width="1.16" opacity="0.312"/><line x1="1480" y1="320" x2="1260" y2="320" stroke="#F6D9B6" fill="none" stroke-linecap="round" stroke-width="1.16" opacity="0.312"/><line x1="140" y1="415" x2="380" y2="415" stroke="#F6D9B6" fill="none" stroke-linecap="round" stroke-width="1.16" opacity="0.312"/><line x1="1460" y1="415" x2="1220" y2="415" stroke="#F6D9B6" fill="none" stroke-linecap="round" stroke-width="1.16" opacity="0.312"/><line x1="160" y1="510" x2="420" y2="510" stroke="#F6D9B6" fill="none" stroke-linecap="round" stroke-width="1.16" opacity="0.312"/><line x1="1440" y1="510" x2="1180" y2="510" stroke="#F6D9B6" fill="none" stroke-linecap="round" stroke-width="1.16" opacity="0.312"/><line x1="180" y1="605" x2="460" y2="605" stroke="#F6D9B6" fill="none" stroke-linecap="round" stroke-width="1.16" opacity="0.312"/><line x1="1420" y1="605" x2="1140" y2="605" stroke="#F6D9B6" fill="none" stroke-linecap="round" stroke-width="1.16" opacity="0.312"/><line x1="200" y1="700" x2="500" y2="700" stroke="#F6D9B6" fill="none" stroke-linecap="round" stroke-width="1.16" opacity="0.312"/><line x1="1400" y1="700" x2="1100" y2="700" stroke="#F6D9B6" fill="none" stroke-linecap="round" stroke-width="1.16" opacity="0.312"/><line x1="220" y1="795" x2="540" y2="795" stroke="#F6D9B6" fill="none" stroke-linecap="round" stroke-width="1.16" opacity="0.312"/><line x1="1380" y1="795" x2="1060" y2="795" stroke="#F6D9B6" fill="none" stroke-linecap="round" stroke-width="1.16" opacity="0.312"/><line x1="240" y1="890" x2="580" y2="890" stroke="#F6D9B6" fill="none" stroke-linecap="round" stroke-width="1.16" opacity="0.312"/><line x1="1360" y1="890" x2="1020" y2="890" stroke="#F6D9B6" fill="none" stroke-linecap="round" stroke-width="1.16" opacity="0.312"/><line x1="260" y1="985" x2="620" y2="985" stroke="#F6D9B6" fill="none" stroke-linecap="round" stroke-width="1.16" opacity="0.312"/><line x1="1340" y1="985" x2="980" y2="985" stroke="#F6D9B6" fill="none" stroke-linecap="round" stroke-width="1.16" opacity="0.312"/><rect width="1600" height="1000" fill="url(#vgart-news-4)"/><rect width="1600" height="1000" filter="url(#nzart-news-4)" opacity="0.055"/></svg>